<?xml version="1.0" standalone="no"?><svg xmlns:xlink="http://www.w3.org/1999/xlink" xmlns="http://www.w3.org/2000/svg" viewBox="0 0 1000 625" preserveAspectRatio="xMaxYMax slice"><g transform="scale(0.8954154727793696)"><rect x="0" y="0" width="1116.8" height="698" fill="#ffffff"/><rect x="27.92" y="27.92" width="13.959999999999994" height="13.959999999999994" fill="#ffffff"/><rect x="27.92" y="27.92" width="6.98" height="6.98" fill="#b7c3f6"/><path d="M 27.92 34.900000000000006 A 6.98 6.98 0 0 1 34.900000000000006 27.92 L 34.900000000000006 29.665000000000003 A 5.235 5.235 0 0 0 29.665000000000003 34.900000000000006" fill="#2147e2"/><rect x="34.9" y="27.92" width="6.98" height="6.98" fill="#2146e2"/><path d="M 34.9 27.92 A 6.98 6.98 0 0 1 41.879999999999995 34.900000000000006 L 40.135 34.900000000000006 A 5.235 5.235 0 0 0 34.9 29.665000000000003" fill="#edf0fd"/><rect x="27.92" y="34.9" width="6.98" height="6.98" fill="#bcc7f6"/><path d="M 27.92 34.9 A 6.98 6.98 0 0 0 34.900000000000006 41.879999999999995 L 34.900000000000006 40.135 A 5.235 5.235 0 0 1 29.665000000000003 34.9" fill="#91a4f1"/><rect x="34.9" y="34.9" width="6.98" height="6.98" fill="#c1cbf7"/><path d="M 34.9 41.879999999999995 A 6.98 6.98 0 0 0 41.879999999999995 34.9 L 40.135 34.9 A 5.235 5.235 0 0 1 34.9 40.135" fill="#f9fafe"/><rect x="97.72" y="27.92" width="13.96" height="13.96" fill="#8ea1f0"/><path d="M 97.72 41.88 A 13.96 13.96 0 0 1  111.68 27.92 L 111.68 41.88" fill="#5b77ea"/><rect x="167.52" y="27.92" width="13.96" height="13.96" fill="#8499ef"/><path d="M 167.52 27.92 A 13.96 13.96 0 0 1 181.48000000000002 41.88 L 167.52 41.88" fill="#2e51e4"/><rect x="237.32" y="27.92" width="13.959999999999994" height="13.959999999999994" fill="#ffffff"/><rect x="237.32" y="27.92" width="6.98" height="6.98" fill="#dce2fb"/><path d="M 237.32 34.900000000000006 A 6.98 6.98 0 0 1 244.29999999999998 27.92 L 244.29999999999998 29.665000000000003 A 5.235 5.235 0 0 0 239.065 34.900000000000006" fill="#8da0f0"/><rect x="244.3" y="27.92" width="6.98" height="6.98" fill="#a6b5f3"/><path d="M 244.3 27.92 A 6.98 6.98 0 0 1 251.28 34.900000000000006 L 249.53500000000003 34.900000000000006 A 5.235 5.235 0 0 0 244.3 29.665000000000003" fill="#7c92ee"/><rect x="237.32" y="34.9" width="6.98" height="6.98" fill="#a1b1f3"/><path d="M 237.32 34.9 A 6.98 6.98 0 0 0 244.29999999999998 41.879999999999995 L 244.29999999999998 40.135 A 5.235 5.235 0 0 1 239.065 34.9" fill="#e8ecfc"/><rect x="244.3" y="34.9" width="6.98" height="6.98" fill="#b0bdf5"/><path d="M 244.3 41.879999999999995 A 6.98 6.98 0 0 0 251.28 34.9 L 249.53500000000003 34.9 A 5.235 5.235 0 0 1 244.3 40.135" fill="#5c77ea"/><rect x="307.12" y="27.92" width="13.96" height="13.96" fill="#d0d8f9"/><rect x="307.12" y="27.92" width="13.96" height="13.96" fill="#d1d9f9"/><rect x="376.92" y="27.92" width="13.96" height="13.96" fill="#1d43e2"/><rect x="376.92" y="27.92" width="13.96" height="13.96" fill="#d5dcf9"/><rect x="446.71999999999997" y="27.92" width="13.959999999999994" height="13.959999999999994" fill="#ffffff"/><rect x="446.72" y="27.92" width="6.98" height="6.98" fill="#5672e9"/><polygon points="453.70000000000005,27.92 453.70000000000005,34.900000000000006 446.72,34.900000000000006" fill="#3254e4"/><rect x="453.7" y="27.92" width="6.98" height="6.98" fill="#a6b5f3"/><polygon points="453.7,27.92 460.68,34.900000000000006 453.7,34.900000000000006" fill="#d4dbf9"/><rect x="446.72" y="34.9" width="6.98" height="6.98" fill="#d6ddfa"/><polygon points="446.72,34.9 453.70000000000005,34.9 453.70000000000005,41.879999999999995" fill="#e7ebfc"/><rect x="453.7" y="34.9" width="6.98" height="6.98" fill="#1940e1"/><polygon points="453.7,34.9 460.68,34.9 453.7,41.879999999999995" fill="#5471e9"/><rect x="516.52" y="27.92" width="13.96" height="13.96" fill="#3a5be5"/><path d="M 516.52 41.88 A 13.96 13.96 0 0 1  530.48 27.92 L 530.48 41.88" fill="#a0b0f3"/><rect x="586.3199999999999" y="27.92" width="13.959999999999994" height="13.959999999999994" fill="#ffffff"/><rect x="586.32" y="27.92" width="6.98" height="6.98" fill="#d0d8f9"/><path d="M 586.32 27.92 A 6.98 6.98 0 0 1 593.3000000000001 34.900000000000006 L 586.32 34.900000000000006" fill="#7d93ee"/><rect x="593.3" y="27.92" width="6.98" height="6.98" fill="#9bacf2"/><path d="M 593.3 34.900000000000006 A 6.98 6.98 0 0 1  600.28 27.92 L 600.28 34.900000000000006" fill="#e3e8fb"/><rect x="586.32" y="34.9" width="6.98" height="6.98" fill="#7a90ee"/><path d="M 586.32 41.879999999999995 A 6.98 6.98 0 0 0 593.3000000000001 34.9 L 586.32 34.9" fill="#8da1f0"/><rect x="593.3" y="34.9" width="6.98" height="6.98" fill="#a9b8f4"/><path d="M 593.3 34.9 A 6.98 6.98 0 0 0 600.28 41.879999999999995 L 600.28 34.9" fill="#8a9ef0"/><rect x="656.12" y="27.92" width="13.96" height="13.96" fill="#5774e9"/><path d="M 656.12 41.88 A 13.96 13.96 0 0 1  670.08 27.92 L 656.12 41.88 A 13.96 13.96 0 0 0 670.08 27.92" fill="#eff2fd"/><rect x="725.92" y="27.92" width="13.96" height="13.96" fill="#fdfdff"/><rect x="725.92" y="27.92" width="13.96" height="13.96" fill="#4d6be8"/><rect x="795.72" y="27.92" width="13.96" height="13.96" fill="#d0d8f9"/><path d="M 795.72 41.88 A 13.96 13.96 0 0 1  809.6800000000001 27.92 L 809.6800000000001 41.88" fill="#afbcf5"/><rect x="865.52" y="27.92" width="13.96" height="13.96" fill="#395ae5"/><polygon points="879.48,27.92 879.48,41.88 865.52,41.88" fill="#f6f8fe"/><rect x="935.3199999999999" y="27.92" width="13.959999999999994" height="13.959999999999994" fill="#ffffff"/><rect x="935.32" y="27.92" width="6.98" height="6.98" fill="#3a5be5"/><circle cx="938.8100000000001" cy="31.410000000000004" r="3.49" fill="#4968e7"/><rect x="942.3" y="27.92" width="6.98" height="6.98" fill="#e5e9fc"/><rect x="942.3" y="27.92" width="6.98" height="6.98" fill="#acbaf4"/><rect x="935.32" y="34.9" width="6.98" height="6.98" fill="#4a69e8"/><circle cx="938.8100000000001" cy="38.39" r="3.49" fill="#c6d0f8"/><rect x="942.3" y="34.9" width="6.98" height="6.98" fill="#8499ef"/><rect x="942.3" y="34.9" width="6.98" height="6.98" fill="#4a69e8"/><rect x="1005.1199999999999" y="27.92" width="13.959999999999994" height="13.959999999999994" fill="#ffffff"/><rect x="1005.12" y="27.92" width="6.98" height="6.98" fill="#94a6f1"/><polygon points="1012.1,27.92 1012.1,34.900000000000006 1005.12,34.900000000000006" fill="#8b9ef0"/><rect x="1012.1" y="27.92" width="6.98" height="6.98" fill="#fdfeff"/><polygon points="1012.1,27.92 1019.08,27.92 1012.1,34.900000000000006" fill="#dde3fb"/><rect x="1005.12" y="34.9" width="6.98" height="6.98" fill="#bdc8f6"/><polygon points="1005.12,34.9 1012.1,34.9 1012.1,41.879999999999995" fill="#cbd4f8"/><rect x="1012.1" y="34.9" width="6.98" height="6.98" fill="#728aed"/><polygon points="1012.1,34.9 1019.08,41.879999999999995 1012.1,41.879999999999995" fill="#eef1fd"/><rect x="1074.92" y="27.92" width="13.959999999999994" height="13.959999999999994" fill="#ffffff"/><rect x="1074.92" y="27.92" width="6.98" height="6.98" fill="#3e5fe6"/><path d="M 1074.92 34.900000000000006 A 6.98 6.98 0 0 1 1081.9 27.92 L 1081.9 29.665000000000003 A 5.235 5.235 0 0 0 1076.665 34.900000000000006" fill="#879cef"/><rect x="1081.9" y="27.92" width="6.98" height="6.98" fill="#97a9f2"/><path d="M 1081.9 27.92 A 6.98 6.98 0 0 1 1088.88 34.900000000000006 L 1087.135 34.900000000000006 A 5.235 5.235 0 0 0 1081.9 29.665000000000003" fill="#1940e1"/><rect x="1074.92" y="34.9" width="6.98" height="6.98" fill="#657feb"/><path d="M 1074.92 34.9 A 6.98 6.98 0 0 0 1081.9 41.879999999999995 L 1081.9 40.135 A 5.235 5.235 0 0 1 1076.665 34.9" fill="#e3e8fb"/><rect x="1081.9" y="34.9" width="6.98" height="6.98" fill="#9aabf2"/><path d="M 1081.9 41.879999999999995 A 6.98 6.98 0 0 0 1088.88 34.9 L 1087.135 34.9 A 5.235 5.235 0 0 1 1081.9 40.135" fill="#cdd6f9"/><rect x="27.92" y="97.72" width="13.959999999999994" height="13.959999999999994" fill="#ffffff"/><rect x="27.92" y="97.72" width="6.98" height="6.98" fill="#8196ef"/><path d="M 27.92 97.72 A 6.98 6.98 0 0 0 34.900000000000006 104.7 L 34.900000000000006 97.72" fill="#758ced"/><rect x="34.9" y="97.72" width="6.98" height="6.98" fill="#b5c2f5"/><path d="M 34.9 104.7 A 6.98 6.98 0 0 0 41.879999999999995 97.72 L 34.9 97.72" fill="#5f7aea"/><rect x="27.92" y="104.7" width="6.98" height="6.98" fill="#7e93ee"/><path d="M 27.92 111.68 A 6.98 6.98 0 0 1  34.900000000000006 104.7 L 34.900000000000006 111.68" fill="#294de3"/><rect x="34.9" y="104.7" width="6.98" height="6.98" fill="#8499ef"/><path d="M 34.9 104.7 A 6.98 6.98 0 0 1 41.879999999999995 111.68 L 34.9 111.68" fill="#c2cdf7"/><rect x="97.72" y="97.72" width="13.959999999999994" height="13.959999999999994" fill="#ffffff"/><rect x="97.72" y="97.72" width="6.98" height="6.98" fill="#afbdf5"/><circle cx="101.21" cy="101.21" r="3.49" fill="#4161e6"/><rect x="104.7" y="97.72" width="6.98" height="6.98" fill="#f2f5fd"/><rect x="104.7" y="97.72" width="6.98" height="6.98" fill="#c2ccf7"/><rect x="97.72" y="104.7" width="6.98" height="6.98" fill="#f7f9fe"/><circle cx="101.21" cy="108.19" r="3.49" fill="#4a68e7"/><rect x="104.7" y="104.7" width="6.98" height="6.98" fill="#94a6f1"/><rect x="104.7" y="104.7" width="6.98" height="6.98" fill="#899df0"/><rect x="167.51999999999998" y="97.72" width="13.959999999999994" height="13.959999999999994" fill="#ffffff"/><rect x="167.52" y="97.72" width="6.98" height="6.98" fill="#d3dbf9"/><polygon points="174.5,97.72 174.5,104.7 167.52,104.7" fill="#4f6de8"/><rect x="174.5" y="97.72" width="6.98" height="6.98" fill="#aab9f4"/><polygon points="174.5,97.72 181.48,104.7 174.5,104.7" fill="#899df0"/><rect x="167.52" y="104.7" width="6.98" height="6.98" fill="#3b5ce5"/><polygon points="167.52,104.7 174.5,104.7 174.5,111.68" fill="#a3b2f3"/><rect x="174.5" y="104.7" width="6.98" height="6.98" fill="#2b4fe3"/><polygon points="174.5,104.7 181.48,104.7 174.5,111.68" fill="#4b69e8"/><rect x="237.32" y="97.72" width="13.959999999999994" height="13.959999999999994" fill="#ffffff"/><rect x="237.32" y="97.72" width="6.98" height="6.98" fill="#afbdf5"/><path d="M 237.32 104.7 A 6.98 6.98 0 0 1 244.29999999999998 97.72 L 244.29999999999998 99.465 A 5.235 5.235 0 0 0 239.065 104.7" fill="#a8b7f4"/><rect x="244.3" y="97.72" width="6.98" height="6.98" fill="#e0e5fb"/><path d="M 244.3 97.72 A 6.98 6.98 0 0 1 251.28 104.7 L 249.53500000000003 104.7 A 5.235 5.235 0 0 0 244.3 99.465" fill="#b2bff5"/><rect x="237.32" y="104.7" width="6.98" height="6.98" fill="#7189ed"/><path d="M 237.32 104.7 A 6.98 6.98 0 0 0 244.29999999999998 111.68 L 244.29999999999998 109.935 A 5.235 5.235 0 0 1 239.065 104.7" fill="#6982eb"/><rect x="244.3" y="104.7" width="6.98" height="6.98" fill="#4b69e8"/><path d="M 244.3 111.68 A 6.98 6.98 0 0 0 251.28 104.7 L 249.53500000000003 104.7 A 5.235 5.235 0 0 1 244.3 109.935" fill="#ebeefc"/><rect x="307.12" y="97.72" width="13.959999999999994" height="13.959999999999994" fill="#ffffff"/><rect x="307.12" y="97.72" width="6.98" height="6.98" fill="#d7defa"/><polygon points="314.1,97.72 314.1,104.7 307.12,104.7" fill="#5d78ea"/><rect x="314.1" y="97.72" width="6.98" height="6.98" fill="#dce1fa"/><polygon points="314.1,97.72 321.08000000000004,104.7 314.1,104.7" fill="#f9fafe"/><rect x="307.12" y="104.7" width="6.98" height="6.98" fill="#f6f8fe"/><polygon points="307.12,104.7 314.1,104.7 307.12,111.68" fill="#3b5ce6"/><rect x="314.1" y="104.7" width="6.98" height="6.98" fill="#dbe1fa"/><polygon points="314.1,104.7 321.08000000000004,104.7 321.08000000000004,111.68" fill="#728aed"/><rect x="376.92" y="97.72" width="13.96" height="13.96" fill="#92a4f1"/><rect x="376.92" y="97.72" width="13.96" height="13.96" fill="#3e5fe6"/><rect x="446.72" y="97.72" width="13.96" height="13.96" fill="#e4e9fb"/><polygon points="446.72,97.72 460.68,111.68 446.72,111.68" fill="#5773e9"/><rect x="516.52" y="97.72" width="13.96" height="13.96" fill="#4565e7"/><polygon points="516.52,97.72 530.48,111.68 516.52,111.68" fill="#768eed"/><rect x="586.3199999999999" y="97.72" width="13.959999999999994" height="13.959999999999994" fill="#ffffff"/><rect x="586.32" y="97.72" width="6.98" height="6.98" fill="#5975e9"/><polygon points="593.3000000000001,97.72 593.3000000000001,104.7 586.32,104.7" fill="#ced7f9"/><rect x="593.3" y="97.72" width="6.98" height="6.98" fill="#183fe1"/><polygon points="593.3,97.72 600.28,104.7 593.3,104.7" fill="#3a5be5"/><rect x="586.32" y="104.7" width="6.98" height="6.98" fill="#97a9f2"/><polygon points="586.32,104.7 593.3000000000001,104.7 586.32,111.68" fill="#4060e6"/><rect x="593.3" y="104.7" width="6.98" height="6.98" fill="#869bef"/><polygon points="593.3,104.7 600.28,104.7 600.28,111.68" fill="#c6d0f8"/><rect x="656.1199999999999" y="97.72" width="13.959999999999994" height="13.959999999999994" fill="#ffffff"/><rect x="656.12" y="97.72" width="6.98" height="6.98" fill="#2f52e4"/><path d="M 656.12 104.7 A 6.98 6.98 0 0 0 663.1 97.72 L 656.12 97.72" fill="#728aed"/><rect x="663.1" y="97.72" width="6.98" height="6.98" fill="#cad3f8"/><path d="M 663.1 97.72 A 6.98 6.98 0 0 0 670.08 104.7 L 670.08 97.72" fill="#adbbf4"/><rect x="656.12" y="104.7" width="6.98" height="6.98" fill="#5773e9"/><path d="M 656.12 104.7 A 6.98 6.98 0 0 1 663.1 111.68 L 656.12 111.68" fill="#7990ee"/><rect x="663.1" y="104.7" width="6.98" height="6.98" fill="#b8c4f6"/><path d="M 663.1 111.68 A 6.98 6.98 0 0 1  670.08 104.7 L 670.08 111.68" fill="#e3e8fb"/><rect x="725.92" y="97.72" width="13.959999999999994" height="13.959999999999994" fill="#ffffff"/><rect x="725.92" y="97.72" width="6.98" height="6.98" fill="#3356e5"/><circle cx="729.41" cy="101.21" r="3.49" fill="#cbd4f8"/><rect x="732.9" y="97.72" width="6.98" height="6.98" fill="#8499ef"/><rect x="732.9" y="97.72" width="6.98" height="6.98" fill="#5571e9"/><rect x="725.92" y="104.7" width="6.98" height="6.98" fill="#98aaf2"/><circle cx="729.41" cy="108.19" r="3.49" fill="#b2bff5"/><rect x="732.9" y="104.7" width="6.98" height="6.98" fill="#4f6ce8"/><rect x="732.9" y="104.7" width="6.98" height="6.98" fill="#3a5be5"/><rect x="795.7199999999999" y="97.72" width="13.959999999999994" height="13.959999999999994" fill="#ffffff"/><rect x="795.72" y="97.72" width="6.98" height="6.98" fill="#d0d8f9"/><path d="M 795.72 97.72 A 6.98 6.98 0 0 0 802.7 104.7 L 802.7 97.72" fill="#b8c4f6"/><rect x="802.7" y="97.72" width="6.98" height="6.98" fill="#eff2fd"/><path d="M 802.7 104.7 A 6.98 6.98 0 0 0 809.6800000000001 97.72 L 802.7 97.72" fill="#284ce3"/><rect x="795.72" y="104.7" width="6.98" height="6.98" fill="#254ae3"/><path d="M 795.72 111.68 A 6.98 6.98 0 0 1  802.7 104.7 L 802.7 111.68" fill="#7b91ee"/><rect x="802.7" y="104.7" width="6.98" height="6.98" fill="#3255e4"/><path d="M 802.7 104.7 A 6.98 6.98 0 0 1 809.6800000000001 111.68 L 802.7 111.68" fill="#284ce3"/><rect x="865.52" y="97.72" width="13.96" height="13.96" fill="#627ceb"/><path d="M 865.52 111.68 A 13.96 13.96 0 0 0 879.48 97.72 L 865.52 97.72" fill="#4060e6"/><rect x="935.32" y="97.72" width="13.96" height="13.96" fill="#183fe1"/><path d="M 935.32 111.68 A 13.96 13.96 0 0 1  949.2800000000001 97.72 L 935.32 111.68 A 13.96 13.96 0 0 0 949.2800000000001 97.72" fill="#5370e9"/><rect x="1005.1199999999999" y="97.72" width="13.959999999999994" height="13.959999999999994" fill="#ffffff"/><rect x="1005.12" y="97.72" width="6.98" height="6.98" fill="#3a5be5"/><polygon points="1012.1,97.72 1012.1,104.7 1005.12,104.7" fill="#5370e9"/><rect x="1012.1" y="97.72" width="6.98" height="6.98" fill="#e9edfc"/><polygon points="1012.1,97.72 1019.08,104.7 1012.1,104.7" fill="#c0cbf7"/><rect x="1005.12" y="104.7" width="6.98" height="6.98" fill="#8196ef"/><polygon points="1005.12,104.7 1012.1,104.7 1012.1,111.68" fill="#637deb"/><rect x="1012.1" y="104.7" width="6.98" height="6.98" fill="#7990ee"/><polygon points="1012.1,104.7 1019.08,104.7 1012.1,111.68" fill="#e1e6fb"/><rect x="1074.92" y="97.72" width="13.96" height="13.96" fill="#bec9f7"/><path d="M 1074.92 111.68 A 13.96 13.96 0 0 0 1088.88 97.72 L 1074.92 97.72" fill="#97a9f2"/><rect x="27.92" y="167.51999999999998" width="13.959999999999994" height="13.959999999999994" fill="#ffffff"/><rect x="27.92" y="167.52" width="6.98" height="6.98" fill="#a2b2f3"/><path d="M 27.92 174.5 A 6.98 6.98 0 0 1 34.900000000000006 167.52 L 34.900000000000006 169.26500000000001 A 5.235 5.235 0 0 0 29.665000000000003 174.5" fill="#cbd4f8"/><rect x="34.9" y="167.52" width="6.98" height="6.98" fill="#5370e9"/><path d="M 34.9 167.52 A 6.98 6.98 0 0 1 41.879999999999995 174.5 L 40.135 174.5 A 5.235 5.235 0 0 0 34.9 169.26500000000001" fill="#7e94ee"/><rect x="27.92" y="174.5" width="6.98" height="6.98" fill="#5874e9"/><path d="M 27.92 174.5 A 6.98 6.98 0 0 0 34.900000000000006 181.48 L 34.900000000000006 179.735 A 5.235 5.235 0 0 1 29.665000000000003 174.5" fill="#fafbfe"/><rect x="34.9" y="174.5" width="6.98" height="6.98" fill="#8398ef"/><path d="M 34.9 181.48 A 6.98 6.98 0 0 0 41.879999999999995 174.5 L 40.135 174.5 A 5.235 5.235 0 0 1 34.9 179.735" fill="#d1d9f9"/><rect x="97.72" y="167.52" width="13.96" height="13.96" fill="#1940e1"/><polygon points="97.72,167.52 111.68,181.48000000000002 97.72,181.48000000000002" fill="#a5b4f3"/><rect x="167.51999999999998" y="167.51999999999998" width="13.959999999999994" height="13.959999999999994" fill="#ffffff"/><rect x="167.52" y="167.52" width="6.98" height="6.98" fill="#7d93ee"/><path d="M 167.52 174.5 A 6.98 6.98 0 0 0 174.5 167.52 L 167.52 167.52" fill="#8297ef"/><rect x="174.5" y="167.52" width="6.98" height="6.98" fill="#516fe8"/><path d="M 174.5 167.52 A 6.98 6.98 0 0 0 181.48 174.5 L 181.48 167.52" fill="#dfe5fb"/><rect x="167.52" y="174.5" width="6.98" height="6.98" fill="#f3f5fd"/><path d="M 167.52 174.5 A 6.98 6.98 0 0 1 174.5 181.48 L 167.52 181.48" fill="#5b76ea"/><rect x="174.5" y="174.5" width="6.98" height="6.98" fill="#c5cff7"/><path d="M 174.5 181.48 A 6.98 6.98 0 0 1  181.48 174.5 L 181.48 181.48" fill="#bbc7f6"/><rect x="237.32" y="167.52" width="13.96" height="13.96" fill="#2c50e4"/><path d="M 237.32 167.52 A 13.96 13.96 0 0 1 251.28 181.48000000000002 L 237.32 181.48000000000002" fill="#bbc6f6"/><rect x="307.12" y="167.52" width="13.96" height="13.96" fill="#647feb"/><polygon points="307.12,167.52 321.08,167.52 307.12,181.48000000000002" fill="#ebeffc"/><rect x="376.92" y="167.52" width="13.96" height="13.96" fill="#c9d2f8"/><polygon points="376.92,167.52 390.88,167.52 390.88,181.48000000000002" fill="#7088ec"/><rect x="446.71999999999997" y="167.51999999999998" width="13.959999999999994" height="13.959999999999994" fill="#ffffff"/><rect x="446.72" y="167.52" width="6.98" height="6.98" fill="#3e5fe6"/><polygon points="453.70000000000005,167.52 453.70000000000005,174.5 446.72,174.5" fill="#e8ebfc"/><rect x="453.7" y="167.52" width="6.98" height="6.98" fill="#e2e7fb"/><polygon points="453.7,167.52 460.68,167.52 453.7,174.5" fill="#c9d2f8"/><rect x="446.72" y="174.5" width="6.98" height="6.98" fill="#9faff3"/><polygon points="446.72,174.5 453.70000000000005,174.5 453.70000000000005,181.48" fill="#9faff3"/><rect x="453.7" y="174.5" width="6.98" height="6.98" fill="#a6b5f3"/><polygon points="453.7,174.5 460.68,181.48 453.7,181.48" fill="#8398ef"/><rect x="516.52" y="167.51999999999998" width="13.959999999999994" height="13.959999999999994" fill="#ffffff"/><rect x="516.52" y="167.52" width="6.98" height="6.98" fill="#1d43e2"/><polygon points="523.5,167.52 523.5,174.5 516.52,174.5" fill="#7189ed"/><rect x="523.5" y="167.52" width="6.98" height="6.98" fill="#8ea1f0"/><polygon points="523.5,167.52 530.48,167.52 523.5,174.5" fill="#f6f8fe"/><rect x="516.52" y="174.5" width="6.98" height="6.98" fill="#395ae5"/><polygon points="516.52,174.5 523.5,174.5 523.5,181.48" fill="#b5c1f5"/><rect x="523.5" y="174.5" width="6.98" height="6.98" fill="#b6c2f5"/><polygon points="523.5,174.5 530.48,181.48 523.5,181.48" fill="#e8ecfc"/><rect x="586.3199999999999" y="167.51999999999998" width="13.959999999999994" height="13.959999999999994" fill="#ffffff"/><rect x="586.32" y="167.52" width="6.98" height="6.98" fill="#f6f7fe"/><polygon points="593.3000000000001,167.52 593.3000000000001,174.5 586.32,174.5" fill="#aab8f4"/><rect x="593.3" y="167.52" width="6.98" height="6.98" fill="#c0cbf7"/><polygon points="593.3,167.52 600.28,174.5 593.3,174.5" fill="#3a5ce5"/><rect x="586.32" y="174.5" width="6.98" height="6.98" fill="#92a4f1"/><polygon points="586.32,174.5 593.3000000000001,174.5 593.3000000000001,181.48" fill="#8297ef"/><rect x="593.3" y="174.5" width="6.98" height="6.98" fill="#3e5ee6"/><polygon points="593.3,174.5 600.28,174.5 593.3,181.48" fill="#c3cdf7"/><rect x="656.1199999999999" y="167.51999999999998" width="13.959999999999994" height="13.959999999999994" fill="#ffffff"/><rect x="656.12" y="167.52" width="6.98" height="6.98" fill="#92a4f1"/><polygon points="663.1,167.52 663.1,174.5 656.12,174.5" fill="#3f5fe6"/><rect x="663.1" y="167.52" width="6.98" height="6.98" fill="#e5e9fc"/><polygon points="663.1,167.52 670.08,174.5 663.1,174.5" fill="#d2daf9"/><rect x="656.12" y="174.5" width="6.98" height="6.98" fill="#7088ec"/><polygon points="656.12,174.5 663.1,174.5 656.12,181.48" fill="#fcfdff"/><rect x="663.1" y="174.5" width="6.98" height="6.98" fill="#e8ecfc"/><polygon points="663.1,174.5 670.08,174.5 670.08,181.48" fill="#3053e4"/><rect x="725.92" y="167.51999999999998" width="13.959999999999994" height="13.959999999999994" fill="#ffffff"/><rect x="725.92" y="167.52" width="6.98" height="6.98" fill="#eceffc"/><polygon points="732.9,167.52 732.9,174.5 725.92,174.5" fill="#788fee"/><rect x="732.9" y="167.52" width="6.98" height="6.98" fill="#b4c0f5"/><polygon points="732.9,167.52 739.88,174.5 732.9,174.5" fill="#cad3f8"/><rect x="725.92" y="174.5" width="6.98" height="6.98" fill="#a8b7f4"/><polygon points="725.92,174.5 732.9,174.5 732.9,181.48" fill="#dde3fb"/><rect x="732.9" y="174.5" width="6.98" height="6.98" fill="#f9fafe"/><polygon points="732.9,174.5 739.88,174.5 732.9,181.48" fill="#395be5"/><rect x="795.72" y="167.52" width="13.96" height="13.96" fill="#879bef"/><path d="M 795.72 181.48000000000002 A 13.96 13.96 0 0 1  809.6800000000001 167.52 L 795.72 181.48000000000002 A 13.96 13.96 0 0 0 809.6800000000001 167.52" fill="#adbbf4"/><rect x="865.5199999999999" y="167.51999999999998" width="13.959999999999994" height="13.959999999999994" fill="#ffffff"/><rect x="865.52" y="167.52" width="6.98" height="6.98" fill="#748ced"/><path d="M 865.52 167.52 A 6.98 6.98 0 0 1 872.5 174.5 L 865.52 174.5" fill="#3759e5"/><rect x="872.5" y="167.52" width="6.98" height="6.98" fill="#d6ddfa"/><path d="M 872.5 174.5 A 6.98 6.98 0 0 1  879.48 167.52 L 879.48 174.5" fill="#7d93ee"/><rect x="865.52" y="174.5" width="6.98" height="6.98" fill="#acbaf4"/><path d="M 865.52 181.48 A 6.98 6.98 0 0 0 872.5 174.5 L 865.52 174.5" fill="#e7ebfc"/><rect x="872.5" y="174.5" width="6.98" height="6.98" fill="#d3daf9"/><path d="M 872.5 174.5 A 6.98 6.98 0 0 0 879.48 181.48 L 879.48 174.5" fill="#1f44e2"/><rect x="935.3199999999999" y="167.51999999999998" width="13.959999999999994" height="13.959999999999994" fill="#ffffff"/><rect x="935.32" y="167.52" width="6.98" height="6.98" fill="#97a9f2"/><path d="M 935.32 174.5 A 6.98 6.98 0 0 1 942.3000000000001 167.52 L 942.3000000000001 169.26500000000001 A 5.235 5.235 0 0 0 937.065 174.5" fill="#9aabf2"/><rect x="942.3" y="167.52" width="6.98" height="6.98" fill="#d4dbf9"/><path d="M 942.3 167.52 A 6.98 6.98 0 0 1 949.28 174.5 L 947.535 174.5 A 5.235 5.235 0 0 0 942.3 169.26500000000001" fill="#9bacf2"/><rect x="935.32" y="174.5" width="6.98" height="6.98" fill="#e1e6fb"/><path d="M 935.32 174.5 A 6.98 6.98 0 0 0 942.3000000000001 181.48 L 942.3000000000001 179.735 A 5.235 5.235 0 0 1 937.065 174.5" fill="#1a41e1"/><rect x="942.3" y="174.5" width="6.98" height="6.98" fill="#b8c4f6"/><path d="M 942.3 181.48 A 6.98 6.98 0 0 0 949.28 174.5 L 947.535 174.5 A 5.235 5.235 0 0 1 942.3 179.735" fill="#bfcaf7"/><rect x="1005.1199999999999" y="167.51999999999998" width="13.959999999999994" height="13.959999999999994" fill="#ffffff"/><rect x="1005.12" y="167.52" width="6.98" height="6.98" fill="#fbfbfe"/><polygon points="1012.1,167.52 1012.1,174.5 1005.12,174.5" fill="#92a5f1"/><rect x="1012.1" y="167.52" width="6.98" height="6.98" fill="#4463e7"/><polygon points="1012.1,167.52 1019.08,174.5 1012.1,174.5" fill="#9daef2"/><rect x="1005.12" y="174.5" width="6.98" height="6.98" fill="#fdfdff"/><polygon points="1005.12,174.5 1012.1,174.5 1005.12,181.48" fill="#c9d2f8"/><rect x="1012.1" y="174.5" width="6.98" height="6.98" fill="#aebbf4"/><polygon points="1012.1,174.5 1019.08,174.5 1019.08,181.48" fill="#8297ef"/><rect x="1074.92" y="167.52" width="13.96" height="13.96" fill="#6680eb"/><polygon points="1074.92,167.52 1088.88,181.48000000000002 1074.92,181.48000000000002" fill="#3d5ee6"/><rect x="27.92" y="237.32" width="13.959999999999994" height="13.959999999999994" fill="#ffffff"/><rect x="27.92" y="237.32" width="6.98" height="6.98" fill="#3356e5"/><polygon points="34.900000000000006,237.32 34.900000000000006,244.29999999999998 27.92,244.29999999999998" fill="#bdc8f6"/><rect x="34.9" y="237.32" width="6.98" height="6.98" fill="#5d78ea"/><polygon points="34.9,237.32 41.879999999999995,244.29999999999998 34.9,244.29999999999998" fill="#c5cef7"/><rect x="27.92" y="244.3" width="6.98" height="6.98" fill="#3053e4"/><polygon points="27.92,244.3 34.900000000000006,244.3 27.92,251.28" fill="#95a7f1"/><rect x="34.9" y="244.3" width="6.98" height="6.98" fill="#93a5f1"/><polygon points="34.9,244.3 41.879999999999995,244.3 41.879999999999995,251.28" fill="#dde3fb"/><rect x="97.72" y="237.32" width="13.959999999999994" height="13.959999999999994" fill="#ffffff"/><rect x="97.72" y="237.32" width="6.98" height="6.98" fill="#506ee8"/><circle cx="101.21" cy="240.81" r="3.49" fill="#e4e9fc"/><rect x="104.7" y="237.32" width="6.98" height="6.98" fill="#2b4fe3"/><rect x="104.7" y="237.32" width="6.98" height="6.98" fill="#a2b1f3"/><rect x="97.72" y="244.3" width="6.98" height="6.98" fill="#3456e5"/><circle cx="101.21" cy="247.79000000000002" r="3.49" fill="#7a90ee"/><rect x="104.7" y="244.3" width="6.98" height="6.98" fill="#f0f2fd"/><rect x="104.7" y="244.3" width="6.98" height="6.98" fill="#adbbf4"/><rect x="167.52" y="237.32" width="13.96" height="13.96" fill="#3d5de6"/><polygon points="181.48000000000002,237.32 181.48000000000002,251.28 167.52,251.28" fill="#3e5fe6"/><rect x="237.32" y="237.32" width="13.96" height="13.96" fill="#1c42e2"/><polygon points="251.28,237.32 251.28,251.28 237.32,251.28" fill="#bec9f7"/><rect x="307.12" y="237.32" width="13.959999999999994" height="13.959999999999994" fill="#ffffff"/><rect x="307.12" y="237.32" width="6.98" height="6.98" fill="#95a7f1"/><path d="M 307.12 237.32 A 6.98 6.98 0 0 0 314.1 244.29999999999998 L 314.1 237.32" fill="#b5c1f5"/><rect x="314.1" y="237.32" width="6.98" height="6.98" fill="#4867e7"/><path d="M 314.1 244.29999999999998 A 6.98 6.98 0 0 0 321.08000000000004 237.32 L 314.1 237.32" fill="#1d43e2"/><rect x="307.12" y="244.3" width="6.98" height="6.98" fill="#3f5fe6"/><path d="M 307.12 251.28 A 6.98 6.98 0 0 1  314.1 244.3 L 314.1 251.28" fill="#4363e7"/><rect x="314.1" y="244.3" width="6.98" height="6.98" fill="#7990ee"/><path d="M 314.1 244.3 A 6.98 6.98 0 0 1 321.08000000000004 251.28 L 314.1 251.28" fill="#b5c1f5"/><rect x="376.92" y="237.32" width="13.959999999999994" height="13.959999999999994" fill="#ffffff"/><rect x="376.92" y="237.32" width="6.98" height="6.98" fill="#9bacf2"/><circle cx="380.41" cy="240.81" r="3.49" fill="#6781eb"/><rect x="383.9" y="237.32" width="6.98" height="6.98" fill="#607aea"/><rect x="383.9" y="237.32" width="6.98" height="6.98" fill="#4564e7"/><rect x="376.92" y="244.3" width="6.98" height="6.98" fill="#aebcf4"/><circle cx="380.41" cy="247.79000000000002" r="3.49" fill="#3758e5"/><rect x="383.9" y="244.3" width="6.98" height="6.98" fill="#e9edfc"/><rect x="383.9" y="244.3" width="6.98" height="6.98" fill="#ced6f9"/><rect x="446.72" y="237.32" width="13.96" height="13.96" fill="#1a41e1"/><rect x="446.72" y="237.32" width="13.96" height="13.96" fill="#eceffd"/><rect x="516.52" y="237.32" width="13.96" height="13.96" fill="#c9d2f8"/><path d="M 516.52 251.28 A 13.96 13.96 0 0 1  530.48 237.32 L 516.52 251.28 A 13.96 13.96 0 0 0 530.48 237.32" fill="#f5f7fe"/><rect x="586.32" y="237.32" width="13.96" height="13.96" fill="#b1bef5"/><path d="M 586.32 237.32 A 13.96 13.96 0 0 1 600.2800000000001 251.28 L 586.32 251.28" fill="#9aabf2"/><rect x="656.12" y="237.32" width="13.96" height="13.96" fill="#4262e6"/><rect x="656.12" y="237.32" width="13.96" height="13.96" fill="#b6c2f6"/><rect x="725.92" y="237.32" width="13.96" height="13.96" fill="#5471e9"/><rect x="725.92" y="237.32" width="13.96" height="13.96" fill="#cfd7f9"/><rect x="795.72" y="237.32" width="13.96" height="13.96" fill="#a2b2f3"/><rect x="795.72" y="237.32" width="13.96" height="13.96" fill="#4463e7"/><rect x="865.52" y="237.32" width="13.96" height="13.96" fill="#fbfcff"/><path d="M 865.52 251.28 A 13.96 13.96 0 0 0 879.48 237.32 L 865.52 237.32" fill="#edf0fd"/><rect x="935.3199999999999" y="237.32" width="13.959999999999994" height="13.959999999999994" fill="#ffffff"/><rect x="935.32" y="237.32" width="6.98" height="6.98" fill="#4f6de8"/><polygon points="942.3000000000001,237.32 942.3000000000001,244.29999999999998 935.32,244.29999999999998" fill="#e0e5fb"/><rect x="942.3" y="237.32" width="6.98" height="6.98" fill="#7b91ee"/><polygon points="942.3,237.32 949.28,237.32 942.3,244.29999999999998" fill="#c8d1f8"/><rect x="935.32" y="244.3" width="6.98" height="6.98" fill="#92a5f1"/><polygon points="935.32,244.3 942.3000000000001,244.3 942.3000000000001,251.28" fill="#4565e7"/><rect x="942.3" y="244.3" width="6.98" height="6.98" fill="#8ea1f0"/><polygon points="942.3,244.3 949.28,251.28 942.3,251.28" fill="#3356e5"/><rect x="1005.1199999999999" y="237.32" width="13.959999999999994" height="13.959999999999994" fill="#ffffff"/><rect x="1005.12" y="237.32" width="6.98" height="6.98" fill="#4665e7"/><polygon points="1012.1,237.32 1012.1,244.29999999999998 1005.12,244.29999999999998" fill="#4262e6"/><rect x="1012.1" y="237.32" width="6.98" height="6.98" fill="#a7b6f4"/><polygon points="1012.1,237.32 1019.08,237.32 1012.1,244.29999999999998" fill="#afbcf5"/><rect x="1005.12" y="244.3" width="6.98" height="6.98" fill="#395be5"/><polygon points="1005.12,244.3 1012.1,244.3 1012.1,251.28" fill="#5f7aea"/><rect x="1012.1" y="244.3" width="6.98" height="6.98" fill="#bbc6f6"/><polygon points="1012.1,244.3 1019.08,251.28 1012.1,251.28" fill="#9aabf2"/><rect x="1074.92" y="237.32" width="13.96" height="13.96" fill="#4666e7"/><path d="M 1074.92 237.32 A 13.96 13.96 0 0 0 1088.88 251.28 L 1088.88 237.32" fill="#97a9f2"/><rect x="27.92" y="307.12" width="13.96" height="13.96" fill="#abb9f4"/><polygon points="41.88,307.12 41.88,321.08 27.92,321.08" fill="#cbd4f8"/><rect x="97.72" y="307.12" width="13.959999999999994" height="13.959999999999994" fill="#ffffff"/><rect x="97.72" y="307.12" width="6.98" height="6.98" fill="#b3c0f5"/><circle cx="101.21" cy="310.61" r="3.49" fill="#2348e2"/><rect x="104.7" y="307.12" width="6.98" height="6.98" fill="#bec9f6"/><rect x="104.7" y="307.12" width="6.98" height="6.98" fill="#f3f5fd"/><rect x="97.72" y="314.1" width="6.98" height="6.98" fill="#99aaf2"/><circle cx="101.21" cy="317.59000000000003" r="3.49" fill="#768ded"/><rect x="104.7" y="314.1" width="6.98" height="6.98" fill="#1a41e1"/><rect x="104.7" y="314.1" width="6.98" height="6.98" fill="#f6f8fe"/><rect x="167.51999999999998" y="307.12" width="13.959999999999994" height="13.959999999999994" fill="#ffffff"/><rect x="167.52" y="307.12" width="6.98" height="6.98" fill="#5975e9"/><polygon points="174.5,307.12 174.5,314.1 167.52,314.1" fill="#7b91ee"/><rect x="174.5" y="307.12" width="6.98" height="6.98" fill="#738bed"/><polygon points="174.5,307.12 181.48,307.12 174.5,314.1" fill="#a1b1f3"/><rect x="167.52" y="314.1" width="6.98" height="6.98" fill="#bbc6f6"/><polygon points="167.52,314.1 174.5,314.1 174.5,321.08000000000004" fill="#fefeff"/><rect x="174.5" y="314.1" width="6.98" height="6.98" fill="#6881eb"/><polygon points="174.5,314.1 181.48,321.08000000000004 174.5,321.08000000000004" fill="#254ae3"/><rect x="237.32" y="307.12" width="13.959999999999994" height="13.959999999999994" fill="#ffffff"/><rect x="237.32" y="307.12" width="6.98" height="6.98" fill="#7f94ee"/><circle cx="240.81" cy="310.61" r="3.49" fill="#dfe5fb"/><rect x="244.3" y="307.12" width="6.98" height="6.98" fill="#eff2fd"/><rect x="244.3" y="307.12" width="6.98" height="6.98" fill="#bbc7f6"/><rect x="237.32" y="314.1" width="6.98" height="6.98" fill="#98a9f2"/><circle cx="240.81" cy="317.59000000000003" r="3.49" fill="#a8b7f4"/><rect x="244.3" y="314.1" width="6.98" height="6.98" fill="#3255e4"/><rect x="244.3" y="314.1" width="6.98" height="6.98" fill="#4a69e8"/><rect x="307.12" y="307.12" width="13.959999999999994" height="13.959999999999994" fill="#ffffff"/><rect x="307.12" y="307.12" width="6.98" height="6.98" fill="#3c5de6"/><path d="M 307.12 307.12 A 6.98 6.98 0 0 0 314.1 314.1 L 314.1 307.12" fill="#9cadf2"/><rect x="314.1" y="307.12" width="6.98" height="6.98" fill="#1d43e2"/><path d="M 314.1 314.1 A 6.98 6.98 0 0 0 321.08000000000004 307.12 L 314.1 307.12" fill="#cdd5f8"/><rect x="307.12" y="314.1" width="6.98" height="6.98" fill="#1f45e2"/><path d="M 307.12 321.08000000000004 A 6.98 6.98 0 0 1  314.1 314.1 L 314.1 321.08000000000004" fill="#b7c4f6"/><rect x="314.1" y="314.1" width="6.98" height="6.98" fill="#f8fafe"/><path d="M 314.1 314.1 A 6.98 6.98 0 0 1 321.08000000000004 321.08000000000004 L 314.1 321.08000000000004" fill="#4c6ae8"/><rect x="376.92" y="307.12" width="13.96" height="13.96" fill="#bcc7f6"/><rect x="376.92" y="307.12" width="13.96" height="13.96" fill="#cbd4f8"/><rect x="446.71999999999997" y="307.12" width="13.959999999999994" height="13.959999999999994" fill="#ffffff"/><rect x="446.72" y="307.12" width="6.98" height="6.98" fill="#adbaf4"/><path d="M 446.72 314.1 A 6.98 6.98 0 0 0 453.70000000000005 307.12 L 446.72 307.12" fill="#284de3"/><rect x="453.7" y="307.12" width="6.98" height="6.98" fill="#3859e5"/><path d="M 453.7 307.12 A 6.98 6.98 0 0 0 460.68 314.1 L 460.68 307.12" fill="#eef1fd"/><rect x="446.72" y="314.1" width="6.98" height="6.98" fill="#1c42e2"/><path d="M 446.72 314.1 A 6.98 6.98 0 0 1 453.70000000000005 321.08000000000004 L 446.72 321.08000000000004" fill="#dce2fa"/><rect x="453.7" y="314.1" width="6.98" height="6.98" fill="#879bef"/><path d="M 453.7 321.08000000000004 A 6.98 6.98 0 0 1  460.68 314.1 L 460.68 321.08000000000004" fill="#bbc6f6"/><rect x="516.52" y="307.12" width="13.959999999999994" height="13.959999999999994" fill="#ffffff"/><rect x="516.52" y="307.12" width="6.98" height="6.98" fill="#4060e6"/><path d="M 516.52 307.12 A 6.98 6.98 0 0 0 523.5 314.1 L 523.5 307.12" fill="#f9fafe"/><rect x="523.5" y="307.12" width="6.98" height="6.98" fill="#859aef"/><path d="M 523.5 314.1 A 6.98 6.98 0 0 0 530.48 307.12 L 523.5 307.12" fill="#99aaf2"/><rect x="516.52" y="314.1" width="6.98" height="6.98" fill="#758ced"/><path d="M 516.52 321.08000000000004 A 6.98 6.98 0 0 1  523.5 314.1 L 523.5 321.08000000000004" fill="#dae0fa"/><rect x="523.5" y="314.1" width="6.98" height="6.98" fill="#5c78ea"/><path d="M 523.5 314.1 A 6.98 6.98 0 0 1 530.48 321.08000000000004 L 523.5 321.08000000000004" fill="#b0bdf5"/><rect x="586.32" y="307.12" width="13.96" height="13.96" fill="#617ceb"/><path d="M 586.32 307.12 A 13.96 13.96 0 0 1  600.2800000000001 321.08 L 586.32 307.12 A 13.96 13.96 0 0 0 600.2800000000001 321.08" fill="#f0f2fd"/><rect x="656.1199999999999" y="307.12" width="13.959999999999994" height="13.959999999999994" fill="#ffffff"/><rect x="656.12" y="307.12" width="6.98" height="6.98" fill="#dee3fb"/><circle cx="659.61" cy="310.61" r="3.49" fill="#cfd7f9"/><rect x="663.1" y="307.12" width="6.98" height="6.98" fill="#728aed"/><rect x="663.1" y="307.12" width="6.98" height="6.98" fill="#a0b0f3"/><rect x="656.12" y="314.1" width="6.98" height="6.98" fill="#899df0"/><circle cx="659.61" cy="317.59000000000003" r="3.49" fill="#4867e7"/><rect x="663.1" y="314.1" width="6.98" height="6.98" fill="#7189ed"/><rect x="663.1" y="314.1" width="6.98" height="6.98" fill="#6b84ec"/><rect x="725.92" y="307.12" width="13.96" height="13.96" fill="#1a41e1"/><path d="M 725.92 321.08 A 13.96 13.96 0 0 1  739.88 307.12 L 739.88 321.08" fill="#3b5ce6"/><rect x="795.72" y="307.12" width="13.96" height="13.96" fill="#c2ccf7"/><rect x="795.72" y="307.12" width="13.96" height="13.96" fill="#cfd7f9"/><rect x="865.52" y="307.12" width="13.96" height="13.96" fill="#ebeefc"/><rect x="865.52" y="307.12" width="13.96" height="13.96" fill="#fcfcff"/><rect x="935.32" y="307.12" width="13.96" height="13.96" fill="#284ce3"/><rect x="935.32" y="307.12" width="13.96" height="13.96" fill="#9cadf2"/><rect x="1005.12" y="307.12" width="13.96" height="13.96" fill="#d4dbf9"/><rect x="1005.12" y="307.12" width="13.96" height="13.96" fill="#4e6ce8"/><rect x="1074.92" y="307.12" width="13.959999999999994" height="13.959999999999994" fill="#ffffff"/><rect x="1074.92" y="307.12" width="6.98" height="6.98" fill="#bfcaf7"/><path d="M 1074.92 314.1 A 6.98 6.98 0 0 1  1081.9 307.12 L 1081.9 314.1" fill="#bbc6f6"/><rect x="1081.9" y="307.12" width="6.98" height="6.98" fill="#3456e5"/><path d="M 1081.9 307.12 A 6.98 6.98 0 0 1 1088.88 314.1 L 1081.9 314.1" fill="#a1b1f3"/><rect x="1074.92" y="314.1" width="6.98" height="6.98" fill="#6d85ec"/><path d="M 1074.92 314.1 A 6.98 6.98 0 0 0 1081.9 321.08000000000004 L 1081.9 314.1" fill="#3d5ee6"/><rect x="1081.9" y="314.1" width="6.98" height="6.98" fill="#f7f8fe"/><path d="M 1081.9 321.08000000000004 A 6.98 6.98 0 0 0 1088.88 314.1 L 1081.9 314.1" fill="#1b41e1"/><rect x="27.92" y="376.92" width="13.96" height="13.96" fill="#dbe1fa"/><path d="M 27.92 390.88 A 13.96 13.96 0 0 1  41.88 376.92 L 41.88 390.88" fill="#5d78ea"/><rect x="97.72" y="376.92" width="13.96" height="13.96" fill="#8297ef"/><rect x="97.72" y="376.92" width="13.96" height="13.96" fill="#8fa2f0"/><rect x="167.51999999999998" y="376.92" width="13.959999999999994" height="13.959999999999994" fill="#ffffff"/><rect x="167.52" y="376.92" width="6.98" height="6.98" fill="#859aef"/><polygon points="174.5,376.92 174.5,383.90000000000003 167.52,383.90000000000003" fill="#b5c1f5"/><rect x="174.5" y="376.92" width="6.98" height="6.98" fill="#5673e9"/><polygon points="174.5,376.92 181.48,376.92 174.5,383.90000000000003" fill="#3a5be5"/><rect x="167.52" y="383.9" width="6.98" height="6.98" fill="#d8defa"/><polygon points="167.52,383.9 174.5,383.9 174.5,390.88" fill="#b3bff5"/><rect x="174.5" y="383.9" width="6.98" height="6.98" fill="#b0bdf5"/><polygon points="174.5,383.9 181.48,390.88 174.5,390.88" fill="#5774e9"/><rect x="237.32" y="376.92" width="13.959999999999994" height="13.959999999999994" fill="#ffffff"/><rect x="237.32" y="376.92" width="6.98" height="6.98" fill="#738aed"/><polygon points="244.29999999999998,376.92 244.29999999999998,383.90000000000003 237.32,383.90000000000003" fill="#f4f6fe"/><rect x="244.3" y="376.92" width="6.98" height="6.98" fill="#cfd7f9"/><polygon points="244.3,376.92 251.28,383.90000000000003 244.3,383.90000000000003" fill="#b8c4f6"/><rect x="237.32" y="383.9" width="6.98" height="6.98" fill="#1d43e2"/><polygon points="237.32,383.9 244.29999999999998,383.9 237.32,390.88" fill="#c2ccf7"/><rect x="244.3" y="383.9" width="6.98" height="6.98" fill="#284ce3"/><polygon points="244.3,383.9 251.28,383.9 251.28,390.88" fill="#617ceb"/><rect x="307.12" y="376.92" width="13.96" height="13.96" fill="#a9b8f4"/><polygon points="321.08,376.92 321.08,390.88 307.12,390.88" fill="#7b91ee"/><rect x="376.92" y="376.92" width="13.96" height="13.96" fill="#395be5"/><path d="M 376.92 376.92 A 13.96 13.96 0 0 1 390.88 390.88 L 376.92 390.88" fill="#d2d9f9"/><rect x="446.72" y="376.92" width="13.96" height="13.96" fill="#4c6ae8"/><rect x="446.72" y="376.92" width="13.96" height="13.96" fill="#f2f5fd"/><rect x="516.52" y="376.92" width="13.959999999999994" height="13.959999999999994" fill="#ffffff"/><rect x="516.52" y="376.92" width="6.98" height="6.98" fill="#254ae3"/><polygon points="523.5,376.92 523.5,383.90000000000003 516.52,383.90000000000003" fill="#506de8"/><rect x="523.5" y="376.92" width="6.98" height="6.98" fill="#bdc8f6"/><polygon points="523.5,376.92 530.48,383.90000000000003 523.5,383.90000000000003" fill="#8398ef"/><rect x="516.52" y="383.9" width="6.98" height="6.98" fill="#f1f3fd"/><polygon points="516.52,383.9 523.5,383.9 516.52,390.88" fill="#5774e9"/><rect x="523.5" y="383.9" width="6.98" height="6.98" fill="#6d86ec"/><polygon points="523.5,383.9 530.48,383.9 530.48,390.88" fill="#617cea"/><rect x="586.3199999999999" y="376.92" width="13.959999999999994" height="13.959999999999994" fill="#ffffff"/><rect x="586.32" y="376.92" width="6.98" height="6.98" fill="#4867e7"/><path d="M 586.32 376.92 A 6.98 6.98 0 0 0 593.3000000000001 383.90000000000003 L 593.3000000000001 376.92" fill="#adbbf4"/><rect x="593.3" y="376.92" width="6.98" height="6.98" fill="#9aabf2"/><path d="M 593.3 383.90000000000003 A 6.98 6.98 0 0 0 600.28 376.92 L 593.3 376.92" fill="#bac6f6"/><rect x="586.32" y="383.9" width="6.98" height="6.98" fill="#b4c0f5"/><path d="M 586.32 390.88 A 6.98 6.98 0 0 1  593.3000000000001 383.9 L 593.3000000000001 390.88" fill="#a4b3f3"/><rect x="593.3" y="383.9" width="6.98" height="6.98" fill="#5773e9"/><path d="M 593.3 383.9 A 6.98 6.98 0 0 1 600.28 390.88 L 593.3 390.88" fill="#e9ecfc"/><rect x="656.1199999999999" y="376.92" width="13.959999999999994" height="13.959999999999994" fill="#ffffff"/><rect x="656.12" y="376.92" width="6.98" height="6.98" fill="#e5eafc"/><circle cx="659.61" cy="380.41" r="3.49" fill="#e0e5fb"/><rect x="663.1" y="376.92" width="6.98" height="6.98" fill="#6780eb"/><rect x="663.1" y="376.92" width="6.98" height="6.98" fill="#738bed"/><rect x="656.12" y="383.9" width="6.98" height="6.98" fill="#778eed"/><circle cx="659.61" cy="387.39" r="3.49" fill="#2348e2"/><rect x="663.1" y="383.9" width="6.98" height="6.98" fill="#2449e3"/><rect x="663.1" y="383.9" width="6.98" height="6.98" fill="#f9fafe"/><rect x="725.92" y="376.92" width="13.959999999999994" height="13.959999999999994" fill="#ffffff"/><rect x="725.92" y="376.92" width="6.98" height="6.98" fill="#a7b6f4"/><polygon points="732.9,376.92 732.9,383.90000000000003 725.92,383.90000000000003" fill="#e6eafc"/><rect x="732.9" y="376.92" width="6.98" height="6.98" fill="#edf0fd"/><polygon points="732.9,376.92 739.88,376.92 732.9,383.90000000000003" fill="#4262e6"/><rect x="725.92" y="383.9" width="6.98" height="6.98" fill="#96a8f1"/><polygon points="725.92,383.9 732.9,383.9 732.9,390.88" fill="#8297ef"/><rect x="732.9" y="383.9" width="6.98" height="6.98" fill="#768ded"/><polygon points="732.9,383.9 739.88,390.88 732.9,390.88" fill="#758ced"/><rect x="795.7199999999999" y="376.92" width="13.959999999999994" height="13.959999999999994" fill="#ffffff"/><rect x="795.72" y="376.92" width="6.98" height="6.98" fill="#a2b2f3"/><polygon points="802.7,376.92 802.7,383.90000000000003 795.72,383.90000000000003" fill="#516fe8"/><rect x="802.7" y="376.92" width="6.98" height="6.98" fill="#edf0fd"/><polygon points="802.7,376.92 809.6800000000001,383.90000000000003 802.7,383.90000000000003" fill="#ebeefc"/><rect x="795.72" y="383.9" width="6.98" height="6.98" fill="#3658e5"/><polygon points="795.72,383.9 802.7,383.9 795.72,390.88" fill="#dde3fb"/><rect x="802.7" y="383.9" width="6.98" height="6.98" fill="#c0caf7"/><polygon points="802.7,383.9 809.6800000000001,383.9 809.6800000000001,390.88" fill="#3557e5"/><rect x="865.5199999999999" y="376.92" width="13.959999999999994" height="13.959999999999994" fill="#ffffff"/><rect x="865.52" y="376.92" width="6.98" height="6.98" fill="#c0cbf7"/><path d="M 865.52 383.90000000000003 A 6.98 6.98 0 0 1  872.5 376.92 L 872.5 383.90000000000003" fill="#afbdf5"/><rect x="872.5" y="376.92" width="6.98" height="6.98" fill="#3658e5"/><path d="M 872.5 376.92 A 6.98 6.98 0 0 1 879.48 383.90000000000003 L 872.5 383.90000000000003" fill="#bbc6f6"/><rect x="865.52" y="383.9" width="6.98" height="6.98" fill="#d0d8f9"/><path d="M 865.52 383.9 A 6.98 6.98 0 0 0 872.5 390.88 L 872.5 383.9" fill="#9cadf2"/><rect x="872.5" y="383.9" width="6.98" height="6.98" fill="#7990ee"/><path d="M 872.5 390.88 A 6.98 6.98 0 0 0 879.48 383.9 L 872.5 383.9" fill="#e1e6fb"/><rect x="935.32" y="376.92" width="13.96" height="13.96" fill="#274be3"/><path d="M 935.32 390.88 A 13.96 13.96 0 0 1  949.2800000000001 376.92 L 935.32 390.88 A 13.96 13.96 0 0 0 949.2800000000001 376.92" fill="#2449e3"/><rect x="1005.1199999999999" y="376.92" width="13.959999999999994" height="13.959999999999994" fill="#ffffff"/><rect x="1005.12" y="376.92" width="6.98" height="6.98" fill="#3255e4"/><path d="M 1005.12 383.90000000000003 A 6.98 6.98 0 0 1  1012.1 376.92 L 1012.1 383.90000000000003" fill="#99aaf2"/><rect x="1012.1" y="376.92" width="6.98" height="6.98" fill="#f3f5fd"/><path d="M 1012.1 376.92 A 6.98 6.98 0 0 1 1019.08 383.90000000000003 L 1012.1 383.90000000000003" fill="#adbbf4"/><rect x="1005.12" y="383.9" width="6.98" height="6.98" fill="#a8b7f4"/><path d="M 1005.12 383.9 A 6.98 6.98 0 0 0 1012.1 390.88 L 1012.1 383.9" fill="#d7defa"/><rect x="1012.1" y="383.9" width="6.98" height="6.98" fill="#6e86ec"/><path d="M 1012.1 390.88 A 6.98 6.98 0 0 0 1019.08 383.9 L 1012.1 383.9" fill="#aebbf4"/><rect x="1074.92" y="376.92" width="13.959999999999994" height="13.959999999999994" fill="#ffffff"/><rect x="1074.92" y="376.92" width="6.98" height="6.98" fill="#7f94ee"/><path d="M 1074.92 376.92 A 6.98 6.98 0 0 0 1081.9 383.90000000000003 L 1081.9 376.92" fill="#5875e9"/><rect x="1081.9" y="376.92" width="6.98" height="6.98" fill="#3355e4"/><path d="M 1081.9 383.90000000000003 A 6.98 6.98 0 0 0 1088.88 376.92 L 1081.9 376.92" fill="#fcfdff"/><rect x="1074.92" y="383.9" width="6.98" height="6.98" fill="#e0e5fb"/><path d="M 1074.92 390.88 A 6.98 6.98 0 0 1  1081.9 383.9 L 1081.9 390.88" fill="#e0e5fb"/><rect x="1081.9" y="383.9" width="6.98" height="6.98" fill="#3b5ce5"/><path d="M 1081.9 383.9 A 6.98 6.98 0 0 1 1088.88 390.88 L 1081.9 390.88" fill="#8c9ff0"/><rect x="27.92" y="446.72" width="13.96" height="13.96" fill="#4d6be8"/><path d="M 27.92 460.68 A 13.96 13.96 0 0 1  41.88 446.72 L 27.92 460.68 A 13.96 13.96 0 0 0 41.88 446.72" fill="#eff2fd"/><rect x="97.72" y="446.72" width="13.96" height="13.96" fill="#607bea"/><polygon points="97.72,446.72 111.68,446.72 97.72,460.68" fill="#9faff2"/><rect x="167.51999999999998" y="446.71999999999997" width="13.959999999999994" height="13.959999999999994" fill="#ffffff"/><rect x="167.52" y="446.72" width="6.98" height="6.98" fill="#f8fafe"/><polygon points="174.5,446.72 174.5,453.70000000000005 167.52,453.70000000000005" fill="#7c93ee"/><rect x="174.5" y="446.72" width="6.98" height="6.98" fill="#edf0fd"/><polygon points="174.5,446.72 181.48,453.70000000000005 174.5,453.70000000000005" fill="#4060e6"/><rect x="167.52" y="453.7" width="6.98" height="6.98" fill="#fdfdff"/><polygon points="167.52,453.7 174.5,453.7 167.52,460.68" fill="#4161e6"/><rect x="174.5" y="453.7" width="6.98" height="6.98" fill="#f2f4fd"/><polygon points="174.5,453.7 181.48,453.7 181.48,460.68" fill="#284ce3"/><rect x="237.32" y="446.72" width="13.96" height="13.96" fill="#1b41e1"/><path d="M 237.32 460.68 A 13.96 13.96 0 0 0 251.28 446.72 L 237.32 446.72" fill="#e2e7fb"/><rect x="307.12" y="446.71999999999997" width="13.959999999999994" height="13.959999999999994" fill="#ffffff"/><rect x="307.12" y="446.72" width="6.98" height="6.98" fill="#284de3"/><path d="M 307.12 453.70000000000005 A 6.98 6.98 0 0 1  314.1 446.72 L 314.1 453.70000000000005" fill="#4e6ce8"/><rect x="314.1" y="446.72" width="6.98" height="6.98" fill="#1f45e2"/><path d="M 314.1 446.72 A 6.98 6.98 0 0 1 321.08000000000004 453.70000000000005 L 314.1 453.70000000000005" fill="#b2bff5"/><rect x="307.12" y="453.7" width="6.98" height="6.98" fill="#94a6f1"/><path d="M 307.12 453.7 A 6.98 6.98 0 0 0 314.1 460.68 L 314.1 453.7" fill="#3b5ce6"/><rect x="314.1" y="453.7" width="6.98" height="6.98" fill="#7a91ee"/><path d="M 314.1 460.68 A 6.98 6.98 0 0 0 321.08000000000004 453.7 L 314.1 453.7" fill="#c5cff8"/><rect x="376.92" y="446.71999999999997" width="13.959999999999994" height="13.959999999999994" fill="#ffffff"/><rect x="376.92" y="446.72" width="6.98" height="6.98" fill="#bfcaf7"/><polygon points="383.90000000000003,446.72 383.90000000000003,453.70000000000005 376.92,453.70000000000005" fill="#395be5"/><rect x="383.9" y="446.72" width="6.98" height="6.98" fill="#fefeff"/><polygon points="383.9,446.72 390.88,453.70000000000005 383.9,453.70000000000005" fill="#e7ebfc"/><rect x="376.92" y="453.7" width="6.98" height="6.98" fill="#254ae3"/><polygon points="376.92,453.7 383.90000000000003,453.7 376.92,460.68" fill="#d7defa"/><rect x="383.9" y="453.7" width="6.98" height="6.98" fill="#778eed"/><polygon points="383.9,453.7 390.88,453.7 390.88,460.68" fill="#788fed"/><rect x="446.72" y="446.72" width="13.96" height="13.96" fill="#e6ebfc"/><rect x="446.72" y="446.72" width="13.96" height="13.96" fill="#2d50e4"/><rect x="516.52" y="446.72" width="13.96" height="13.96" fill="#fafbfe"/><polygon points="530.48,446.72 530.48,460.68 516.52,460.68" fill="#526fe9"/><rect x="586.32" y="446.72" width="13.96" height="13.96" fill="#d6ddfa"/><polygon points="586.32,446.72 600.2800000000001,446.72 586.32,460.68" fill="#bac6f6"/><rect x="656.1199999999999" y="446.71999999999997" width="13.959999999999994" height="13.959999999999994" fill="#ffffff"/><rect x="656.12" y="446.72" width="6.98" height="6.98" fill="#b9c5f6"/><path d="M 656.12 453.70000000000005 A 6.98 6.98 0 0 0 663.1 446.72 L 656.12 446.72" fill="#b7c3f6"/><rect x="663.1" y="446.72" width="6.98" height="6.98" fill="#2248e2"/><path d="M 663.1 446.72 A 6.98 6.98 0 0 0 670.08 453.70000000000005 L 670.08 446.72" fill="#adbbf4"/><rect x="656.12" y="453.7" width="6.98" height="6.98" fill="#5471e9"/><path d="M 656.12 453.7 A 6.98 6.98 0 0 1 663.1 460.68 L 656.12 460.68" fill="#3356e5"/><rect x="663.1" y="453.7" width="6.98" height="6.98" fill="#9faff2"/><path d="M 663.1 460.68 A 6.98 6.98 0 0 1  670.08 453.7 L 670.08 460.68" fill="#eaedfc"/><rect x="725.92" y="446.72" width="13.96" height="13.96" fill="#adbbf4"/><path d="M 725.92 460.68 A 13.96 13.96 0 0 1  739.88 446.72 L 739.88 460.68" fill="#abb9f4"/><rect x="795.7199999999999" y="446.71999999999997" width="13.959999999999994" height="13.959999999999994" fill="#ffffff"/><rect x="795.72" y="446.72" width="6.98" height="6.98" fill="#b3c0f5"/><polygon points="802.7,446.72 802.7,453.70000000000005 795.72,453.70000000000005" fill="#8a9ef0"/><rect x="802.7" y="446.72" width="6.98" height="6.98" fill="#e8ecfc"/><polygon points="802.7,446.72 809.6800000000001,453.70000000000005 802.7,453.70000000000005" fill="#bac5f6"/><rect x="795.72" y="453.7" width="6.98" height="6.98" fill="#3e5ee6"/><polygon points="795.72,453.7 802.7,453.7 795.72,460.68" fill="#a6b5f3"/><rect x="802.7" y="453.7" width="6.98" height="6.98" fill="#4968e7"/><polygon points="802.7,453.7 809.6800000000001,453.7 809.6800000000001,460.68" fill="#eef1fd"/><rect x="865.52" y="446.72" width="13.96" height="13.96" fill="#95a7f1"/><polygon points="865.52,446.72 879.48,446.72 879.48,460.68" fill="#4262e6"/><rect x="935.3199999999999" y="446.71999999999997" width="13.959999999999994" height="13.959999999999994" fill="#ffffff"/><rect x="935.32" y="446.72" width="6.98" height="6.98" fill="#f7f8fe"/><polygon points="942.3000000000001,446.72 942.3000000000001,453.70000000000005 935.32,453.70000000000005" fill="#7f95ee"/><rect x="942.3" y="446.72" width="6.98" height="6.98" fill="#eceffd"/><polygon points="942.3,446.72 949.28,453.70000000000005 942.3,453.70000000000005" fill="#c8d2f8"/><rect x="935.32" y="453.7" width="6.98" height="6.98" fill="#728aed"/><polygon points="935.32,453.7 942.3000000000001,453.7 935.32,460.68" fill="#5571e9"/><rect x="942.3" y="453.7" width="6.98" height="6.98" fill="#aab9f4"/><polygon points="942.3,453.7 949.28,453.7 949.28,460.68" fill="#748ced"/><rect x="1005.1199999999999" y="446.71999999999997" width="13.959999999999994" height="13.959999999999994" fill="#ffffff"/><rect x="1005.12" y="446.72" width="6.98" height="6.98" fill="#2c4fe4"/><polygon points="1012.1,446.72 1012.1,453.70000000000005 1005.12,453.70000000000005" fill="#d9e0fa"/><rect x="1012.1" y="446.72" width="6.98" height="6.98" fill="#b8c4f6"/><polygon points="1012.1,446.72 1019.08,453.70000000000005 1012.1,453.70000000000005" fill="#5673e9"/><rect x="1005.12" y="453.7" width="6.98" height="6.98" fill="#4c6ae8"/><polygon points="1005.12,453.7 1012.1,453.7 1012.1,460.68" fill="#617bea"/><rect x="1012.1" y="453.7" width="6.98" height="6.98" fill="#3f5fe6"/><polygon points="1012.1,453.7 1019.08,453.7 1012.1,460.68" fill="#2d51e4"/><rect x="1074.92" y="446.72" width="13.96" height="13.96" fill="#bbc7f6"/><polygon points="1074.92,446.72 1088.88,460.68 1074.92,460.68" fill="#768ded"/><rect x="27.92" y="516.52" width="13.959999999999994" height="13.959999999999994" fill="#ffffff"/><rect x="27.92" y="516.52" width="6.98" height="6.98" fill="#abb9f4"/><path d="M 27.92 516.52 A 6.98 6.98 0 0 1 34.900000000000006 523.5 L 27.92 523.5" fill="#a1b1f3"/><rect x="34.9" y="516.52" width="6.98" height="6.98" fill="#c4cef7"/><path d="M 34.9 523.5 A 6.98 6.98 0 0 1  41.879999999999995 516.52 L 41.879999999999995 523.5" fill="#92a4f1"/><rect x="27.92" y="523.5" width="6.98" height="6.98" fill="#657feb"/><path d="M 27.92 530.48 A 6.98 6.98 0 0 0 34.900000000000006 523.5 L 27.92 523.5" fill="#3154e4"/><rect x="34.9" y="523.5" width="6.98" height="6.98" fill="#d5dcf9"/><path d="M 34.9 523.5 A 6.98 6.98 0 0 0 41.879999999999995 530.48 L 41.879999999999995 523.5" fill="#526fe8"/><rect x="97.72" y="516.52" width="13.96" height="13.96" fill="#bac6f6"/><polygon points="111.68,516.52 111.68,530.48 97.72,530.48" fill="#9fb0f3"/><rect x="167.52" y="516.52" width="13.96" height="13.96" fill="#3255e4"/><path d="M 167.52 530.48 A 13.96 13.96 0 0 1  181.48000000000002 516.52 L 167.52 530.48 A 13.96 13.96 0 0 0 181.48000000000002 516.52" fill="#4968e7"/><rect x="237.32" y="516.52" width="13.959999999999994" height="13.959999999999994" fill="#ffffff"/><rect x="237.32" y="516.52" width="6.98" height="6.98" fill="#f5f7fe"/><path d="M 237.32 523.5 A 6.98 6.98 0 0 1  244.29999999999998 516.52 L 244.29999999999998 523.5" fill="#4565e7"/><rect x="244.3" y="516.52" width="6.98" height="6.98" fill="#7c92ee"/><path d="M 244.3 516.52 A 6.98 6.98 0 0 1 251.28 523.5 L 244.3 523.5" fill="#a2b2f3"/><rect x="237.32" y="523.5" width="6.98" height="6.98" fill="#eef1fd"/><path d="M 237.32 523.5 A 6.98 6.98 0 0 0 244.29999999999998 530.48 L 244.29999999999998 523.5" fill="#2d50e4"/><rect x="244.3" y="523.5" width="6.98" height="6.98" fill="#b9c5f6"/><path d="M 244.3 530.48 A 6.98 6.98 0 0 0 251.28 523.5 L 244.3 523.5" fill="#4867e7"/><rect x="307.12" y="516.52" width="13.959999999999994" height="13.959999999999994" fill="#ffffff"/><rect x="307.12" y="516.52" width="6.98" height="6.98" fill="#4060e6"/><path d="M 307.12 523.5 A 6.98 6.98 0 0 1 314.1 516.52 L 314.1 518.265 A 5.235 5.235 0 0 0 308.865 523.5" fill="#d3daf9"/><rect x="314.1" y="516.52" width="6.98" height="6.98" fill="#6e87ec"/><path d="M 314.1 516.52 A 6.98 6.98 0 0 1 321.08000000000004 523.5 L 319.33500000000004 523.5 A 5.235 5.235 0 0 0 314.1 518.265" fill="#788fee"/><rect x="307.12" y="523.5" width="6.98" height="6.98" fill="#1940e1"/><path d="M 307.12 523.5 A 6.98 6.98 0 0 0 314.1 530.48 L 314.1 528.735 A 5.235 5.235 0 0 1 308.865 523.5" fill="#afbcf5"/><rect x="314.1" y="523.5" width="6.98" height="6.98" fill="#3356e5"/><path d="M 314.1 530.48 A 6.98 6.98 0 0 0 321.08000000000004 523.5 L 319.33500000000004 523.5 A 5.235 5.235 0 0 1 314.1 528.735" fill="#97a8f1"/><rect x="376.92" y="516.52" width="13.96" height="13.96" fill="#4d6be8"/><polygon points="390.88,516.52 390.88,530.48 376.92,530.48" fill="#3e5ee6"/><rect x="446.71999999999997" y="516.52" width="13.959999999999994" height="13.959999999999994" fill="#ffffff"/><rect x="446.72" y="516.52" width="6.98" height="6.98" fill="#3254e4"/><polygon points="453.70000000000005,516.52 453.70000000000005,523.5 446.72,523.5" fill="#1a40e1"/><rect x="453.7" y="516.52" width="6.98" height="6.98" fill="#7b91ee"/><polygon points="453.7,516.52 460.68,523.5 453.7,523.5" fill="#c1cbf7"/><rect x="446.72" y="523.5" width="6.98" height="6.98" fill="#c9d2f8"/><polygon points="446.72,523.5 453.70000000000005,523.5 446.72,530.48" fill="#8a9df0"/><rect x="453.7" y="523.5" width="6.98" height="6.98" fill="#b1bef5"/><polygon points="453.7,523.5 460.68,523.5 460.68,530.48" fill="#b2bff5"/><rect x="516.52" y="516.52" width="13.96" height="13.96" fill="#7a91ee"/><path d="M 516.52 516.52 A 13.96 13.96 0 0 1 530.48 530.48 L 516.52 530.48" fill="#d3daf9"/><rect x="586.32" y="516.52" width="13.96" height="13.96" fill="#6881eb"/><polygon points="600.2800000000001,516.52 600.2800000000001,530.48 586.32,530.48" fill="#6882eb"/><rect x="656.1199999999999" y="516.52" width="13.959999999999994" height="13.959999999999994" fill="#ffffff"/><rect x="656.12" y="516.52" width="6.98" height="6.98" fill="#2a4ee3"/><path d="M 656.12 523.5 A 6.98 6.98 0 0 1 663.1 516.52 L 663.1 518.265 A 5.235 5.235 0 0 0 657.865 523.5" fill="#5c78ea"/><rect x="663.1" y="516.52" width="6.98" height="6.98" fill="#b4c1f5"/><path d="M 663.1 516.52 A 6.98 6.98 0 0 1 670.08 523.5 L 668.335 523.5 A 5.235 5.235 0 0 0 663.1 518.265" fill="#5975e9"/><rect x="656.12" y="523.5" width="6.98" height="6.98" fill="#3658e5"/><path d="M 656.12 523.5 A 6.98 6.98 0 0 0 663.1 530.48 L 663.1 528.735 A 5.235 5.235 0 0 1 657.865 523.5" fill="#dae0fa"/><rect x="663.1" y="523.5" width="6.98" height="6.98" fill="#294de3"/><path d="M 663.1 530.48 A 6.98 6.98 0 0 0 670.08 523.5 L 668.335 523.5 A 5.235 5.235 0 0 1 663.1 528.735" fill="#657feb"/><rect x="725.92" y="516.52" width="13.959999999999994" height="13.959999999999994" fill="#ffffff"/><rect x="725.92" y="516.52" width="6.98" height="6.98" fill="#2f52e4"/><path d="M 725.92 523.5 A 6.98 6.98 0 0 1 732.9 516.52 L 732.9 518.265 A 5.235 5.235 0 0 0 727.665 523.5" fill="#2045e2"/><rect x="732.9" y="516.52" width="6.98" height="6.98" fill="#6f87ec"/><path d="M 732.9 516.52 A 6.98 6.98 0 0 1 739.88 523.5 L 738.135 523.5 A 5.235 5.235 0 0 0 732.9 518.265" fill="#b5c2f5"/><rect x="725.92" y="523.5" width="6.98" height="6.98" fill="#f7f8fe"/><path d="M 725.92 523.5 A 6.98 6.98 0 0 0 732.9 530.48 L 732.9 528.735 A 5.235 5.235 0 0 1 727.665 523.5" fill="#d7defa"/><rect x="732.9" y="523.5" width="6.98" height="6.98" fill="#7b91ee"/><path d="M 732.9 530.48 A 6.98 6.98 0 0 0 739.88 523.5 L 738.135 523.5 A 5.235 5.235 0 0 1 732.9 528.735" fill="#c0cbf7"/><rect x="795.7199999999999" y="516.52" width="13.959999999999994" height="13.959999999999994" fill="#ffffff"/><rect x="795.72" y="516.52" width="6.98" height="6.98" fill="#b7c3f6"/><path d="M 795.72 523.5 A 6.98 6.98 0 0 1  802.7 516.52 L 802.7 523.5" fill="#5975e9"/><rect x="802.7" y="516.52" width="6.98" height="6.98" fill="#6781eb"/><path d="M 802.7 516.52 A 6.98 6.98 0 0 1 809.6800000000001 523.5 L 802.7 523.5" fill="#3355e4"/><rect x="795.72" y="523.5" width="6.98" height="6.98" fill="#c9d2f8"/><path d="M 795.72 523.5 A 6.98 6.98 0 0 0 802.7 530.48 L 802.7 523.5" fill="#627ceb"/><rect x="802.7" y="523.5" width="6.98" height="6.98" fill="#a8b6f4"/><path d="M 802.7 530.48 A 6.98 6.98 0 0 0 809.6800000000001 523.5 L 802.7 523.5" fill="#1c42e2"/><rect x="865.52" y="516.52" width="13.96" height="13.96" fill="#1c42e1"/><polygon points="865.52,516.52 879.48,530.48 865.52,530.48" fill="#c2cdf7"/><rect x="935.32" y="516.52" width="13.96" height="13.96" fill="#fdfeff"/><path d="M 935.32 530.48 A 13.96 13.96 0 0 1  949.2800000000001 516.52 L 949.2800000000001 530.48" fill="#5572e9"/><rect x="1005.1199999999999" y="516.52" width="13.959999999999994" height="13.959999999999994" fill="#ffffff"/><rect x="1005.12" y="516.52" width="6.98" height="6.98" fill="#dae0fa"/><path d="M 1005.12 516.52 A 6.98 6.98 0 0 0 1012.1 523.5 L 1012.1 516.52" fill="#b5c2f5"/><rect x="1012.1" y="516.52" width="6.98" height="6.98" fill="#798fee"/><path d="M 1012.1 523.5 A 6.98 6.98 0 0 0 1019.08 516.52 L 1012.1 516.52" fill="#7289ed"/><rect x="1005.12" y="523.5" width="6.98" height="6.98" fill="#4a68e7"/><path d="M 1005.12 530.48 A 6.98 6.98 0 0 1  1012.1 523.5 L 1012.1 530.48" fill="#758ded"/><rect x="1012.1" y="523.5" width="6.98" height="6.98" fill="#1f45e2"/><path d="M 1012.1 523.5 A 6.98 6.98 0 0 1 1019.08 530.48 L 1012.1 530.48" fill="#edf0fd"/><rect x="1074.92" y="516.52" width="13.96" height="13.96" fill="#98aaf2"/><path d="M 1074.92 516.52 A 13.96 13.96 0 0 0 1088.88 530.48 L 1088.88 516.52" fill="#8ca0f0"/><rect x="27.92" y="586.3199999999999" width="13.959999999999994" height="13.959999999999994" fill="#ffffff"/><rect x="27.92" y="586.32" width="6.98" height="6.98" fill="#b6c3f6"/><polygon points="34.900000000000006,586.32 34.900000000000006,593.3000000000001 27.92,593.3000000000001" fill="#95a7f1"/><rect x="34.9" y="586.32" width="6.98" height="6.98" fill="#2247e2"/><polygon points="34.9,586.32 41.879999999999995,593.3000000000001 34.9,593.3000000000001" fill="#b4c1f5"/><rect x="27.92" y="593.3" width="6.98" height="6.98" fill="#6e87ec"/><polygon points="27.92,593.3 34.900000000000006,593.3 27.92,600.28" fill="#3356e5"/><rect x="34.9" y="593.3" width="6.98" height="6.98" fill="#eff2fd"/><polygon points="34.9,593.3 41.879999999999995,593.3 41.879999999999995,600.28" fill="#2147e2"/><rect x="97.72" y="586.3199999999999" width="13.959999999999994" height="13.959999999999994" fill="#ffffff"/><rect x="97.72" y="586.32" width="6.98" height="6.98" fill="#a0b0f3"/><path d="M 97.72 593.3000000000001 A 6.98 6.98 0 0 1  104.7 586.32 L 104.7 593.3000000000001" fill="#8fa2f0"/><rect x="104.7" y="586.32" width="6.98" height="6.98" fill="#5874e9"/><path d="M 104.7 586.32 A 6.98 6.98 0 0 1 111.68 593.3000000000001 L 104.7 593.3000000000001" fill="#adbbf4"/><rect x="97.72" y="593.3" width="6.98" height="6.98" fill="#5a76ea"/><path d="M 97.72 593.3 A 6.98 6.98 0 0 0 104.7 600.28 L 104.7 593.3" fill="#b6c2f6"/><rect x="104.7" y="593.3" width="6.98" height="6.98" fill="#5673e9"/><path d="M 104.7 600.28 A 6.98 6.98 0 0 0 111.68 593.3 L 104.7 593.3" fill="#dbe1fa"/><rect x="167.52" y="586.32" width="13.96" height="13.96" fill="#4161e6"/><path d="M 167.52 600.2800000000001 A 13.96 13.96 0 0 1  181.48000000000002 586.32 L 167.52 600.2800000000001 A 13.96 13.96 0 0 0 181.48000000000002 586.32" fill="#617cea"/><rect x="237.32" y="586.3199999999999" width="13.959999999999994" height="13.959999999999994" fill="#ffffff"/><rect x="237.32" y="586.32" width="6.98" height="6.98" fill="#2348e2"/><polygon points="244.29999999999998,586.32 244.29999999999998,593.3000000000001 237.32,593.3000000000001" fill="#728aed"/><rect x="244.3" y="586.32" width="6.98" height="6.98" fill="#4f6de8"/><polygon points="244.3,586.32 251.28,593.3000000000001 244.3,593.3000000000001" fill="#c5cff7"/><rect x="237.32" y="593.3" width="6.98" height="6.98" fill="#4c6ae8"/><polygon points="237.32,593.3 244.29999999999998,593.3 237.32,600.28" fill="#d4dbf9"/><rect x="244.3" y="593.3" width="6.98" height="6.98" fill="#2b4fe3"/><polygon points="244.3,593.3 251.28,593.3 251.28,600.28" fill="#bcc7f6"/><rect x="307.12" y="586.32" width="13.96" height="13.96" fill="#c7d0f8"/><polygon points="307.12,586.32 321.08,586.32 307.12,600.2800000000001" fill="#99abf2"/><rect x="376.92" y="586.32" width="13.96" height="13.96" fill="#a1b0f3"/><rect x="376.92" y="586.32" width="13.96" height="13.96" fill="#2147e2"/><rect x="446.72" y="586.32" width="13.96" height="13.96" fill="#96a7f1"/><rect x="446.72" y="586.32" width="13.96" height="13.96" fill="#6982eb"/><rect x="516.52" y="586.32" width="13.96" height="13.96" fill="#5975e9"/><path d="M 516.52 600.2800000000001 A 13.96 13.96 0 0 1  530.48 586.32 L 516.52 600.2800000000001 A 13.96 13.96 0 0 0 530.48 586.32" fill="#bfc9f7"/><rect x="586.3199999999999" y="586.3199999999999" width="13.959999999999994" height="13.959999999999994" fill="#ffffff"/><rect x="586.32" y="586.32" width="6.98" height="6.98" fill="#b4c1f5"/><path d="M 586.32 593.3000000000001 A 6.98 6.98 0 0 1 593.3000000000001 586.32 L 593.3000000000001 588.065 A 5.235 5.235 0 0 0 588.065 593.3000000000001" fill="#7189ed"/><rect x="593.3" y="586.32" width="6.98" height="6.98" fill="#bac6f6"/><path d="M 593.3 586.32 A 6.98 6.98 0 0 1 600.28 593.3000000000001 L 598.535 593.3000000000001 A 5.235 5.235 0 0 0 593.3 588.065" fill="#2247e2"/><rect x="586.32" y="593.3" width="6.98" height="6.98" fill="#1940e1"/><path d="M 586.32 593.3 A 6.98 6.98 0 0 0 593.3000000000001 600.28 L 593.3000000000001 598.535 A 5.235 5.235 0 0 1 588.065 593.3" fill="#1e44e2"/><rect x="593.3" y="593.3" width="6.98" height="6.98" fill="#7088ec"/><path d="M 593.3 600.28 A 6.98 6.98 0 0 0 600.28 593.3 L 598.535 593.3 A 5.235 5.235 0 0 1 593.3 598.535" fill="#889cf0"/><rect x="656.12" y="586.32" width="13.96" height="13.96" fill="#94a6f1"/><rect x="656.12" y="586.32" width="13.96" height="13.96" fill="#eef1fd"/><rect x="725.92" y="586.3199999999999" width="13.959999999999994" height="13.959999999999994" fill="#ffffff"/><rect x="725.92" y="586.32" width="6.98" height="6.98" fill="#d6ddfa"/><path d="M 725.92 586.32 A 6.98 6.98 0 0 0 732.9 593.3000000000001 L 732.9 586.32" fill="#8ca0f0"/><rect x="732.9" y="586.32" width="6.98" height="6.98" fill="#7990ee"/><path d="M 732.9 593.3000000000001 A 6.98 6.98 0 0 0 739.88 586.32 L 732.9 586.32" fill="#aab8f4"/><rect x="725.92" y="593.3" width="6.98" height="6.98" fill="#3e5fe6"/><path d="M 725.92 600.28 A 6.98 6.98 0 0 1  732.9 593.3 L 732.9 600.28" fill="#1f45e2"/><rect x="732.9" y="593.3" width="6.98" height="6.98" fill="#1f45e2"/><path d="M 732.9 593.3 A 6.98 6.98 0 0 1 739.88 600.28 L 732.9 600.28" fill="#8196ef"/><rect x="795.7199999999999" y="586.3199999999999" width="13.959999999999994" height="13.959999999999994" fill="#ffffff"/><rect x="795.72" y="586.32" width="6.98" height="6.98" fill="#f1f3fd"/><path d="M 795.72 593.3000000000001 A 6.98 6.98 0 0 1  802.7 586.32 L 802.7 593.3000000000001" fill="#5c78ea"/><rect x="802.7" y="586.32" width="6.98" height="6.98" fill="#2e51e4"/><path d="M 802.7 586.32 A 6.98 6.98 0 0 1 809.6800000000001 593.3000000000001 L 802.7 593.3000000000001" fill="#3f60e6"/><rect x="795.72" y="593.3" width="6.98" height="6.98" fill="#f6f8fe"/><path d="M 795.72 593.3 A 6.98 6.98 0 0 0 802.7 600.28 L 802.7 593.3" fill="#95a7f1"/><rect x="802.7" y="593.3" width="6.98" height="6.98" fill="#eaeefc"/><path d="M 802.7 600.28 A 6.98 6.98 0 0 0 809.6800000000001 593.3 L 802.7 593.3" fill="#8095ee"/><rect x="865.5199999999999" y="586.3199999999999" width="13.959999999999994" height="13.959999999999994" fill="#ffffff"/><rect x="865.52" y="586.32" width="6.98" height="6.98" fill="#a2b1f3"/><polygon points="872.5,586.32 872.5,593.3000000000001 865.52,593.3000000000001" fill="#a8b7f4"/><rect x="872.5" y="586.32" width="6.98" height="6.98" fill="#acbaf4"/><polygon points="872.5,586.32 879.48,586.32 872.5,593.3000000000001" fill="#5672e9"/><rect x="865.52" y="593.3" width="6.98" height="6.98" fill="#c5cff7"/><polygon points="865.52,593.3 872.5,593.3 872.5,600.28" fill="#f0f2fd"/><rect x="872.5" y="593.3" width="6.98" height="6.98" fill="#4e6ce8"/><polygon points="872.5,593.3 879.48,600.28 872.5,600.28" fill="#e1e6fb"/><rect x="935.32" y="586.32" width="13.96" height="13.96" fill="#eff1fd"/><rect x="935.32" y="586.32" width="13.96" height="13.96" fill="#5b77ea"/><rect x="1005.12" y="586.32" width="13.96" height="13.96" fill="#bac6f6"/><path d="M 1005.12 600.2800000000001 A 13.96 13.96 0 0 0 1019.08 586.32 L 1005.12 586.32" fill="#c5cff7"/><rect x="1074.92" y="586.3199999999999" width="13.959999999999994" height="13.959999999999994" fill="#ffffff"/><rect x="1074.92" y="586.32" width="6.98" height="6.98" fill="#a9b8f4"/><circle cx="1078.41" cy="589.8100000000001" r="3.49" fill="#b7c3f6"/><rect x="1081.9" y="586.32" width="6.98" height="6.98" fill="#8c9ff0"/><rect x="1081.9" y="586.32" width="6.98" height="6.98" fill="#8398ef"/><rect x="1074.92" y="593.3" width="6.98" height="6.98" fill="#3053e4"/><circle cx="1078.41" cy="596.79" r="3.49" fill="#5a76ea"/><rect x="1081.9" y="593.3" width="6.98" height="6.98" fill="#b4c1f5"/><rect x="1081.9" y="593.3" width="6.98" height="6.98" fill="#627ceb"/><rect x="27.92" y="656.1199999999999" width="13.959999999999994" height="13.959999999999994" fill="#ffffff"/><rect x="27.92" y="656.12" width="6.98" height="6.98" fill="#4968e7"/><path d="M 27.92 656.12 A 6.98 6.98 0 0 0 34.900000000000006 663.1 L 34.900000000000006 656.12" fill="#1a41e1"/><rect x="34.9" y="656.12" width="6.98" height="6.98" fill="#f7f8fe"/><path d="M 34.9 663.1 A 6.98 6.98 0 0 0 41.879999999999995 656.12 L 34.9 656.12" fill="#eaedfc"/><rect x="27.92" y="663.1" width="6.98" height="6.98" fill="#2248e2"/><path d="M 27.92 670.08 A 6.98 6.98 0 0 1  34.900000000000006 663.1 L 34.900000000000006 670.08" fill="#97a9f2"/><rect x="34.9" y="663.1" width="6.98" height="6.98" fill="#a9b8f4"/><path d="M 34.9 663.1 A 6.98 6.98 0 0 1 41.879999999999995 670.08 L 34.9 670.08" fill="#a8b6f4"/><rect x="97.72" y="656.1199999999999" width="13.959999999999994" height="13.959999999999994" fill="#ffffff"/><rect x="97.72" y="656.12" width="6.98" height="6.98" fill="#3053e4"/><circle cx="101.21" cy="659.61" r="3.49" fill="#fefeff"/><rect x="104.7" y="656.12" width="6.98" height="6.98" fill="#95a7f1"/><rect x="104.7" y="656.12" width="6.98" height="6.98" fill="#1d43e2"/><rect x="97.72" y="663.1" width="6.98" height="6.98" fill="#d6ddfa"/><circle cx="101.21" cy="666.59" r="3.49" fill="#768ded"/><rect x="104.7" y="663.1" width="6.98" height="6.98" fill="#778eed"/><rect x="104.7" y="663.1" width="6.98" height="6.98" fill="#506ee8"/><rect x="167.51999999999998" y="656.1199999999999" width="13.959999999999994" height="13.959999999999994" fill="#ffffff"/><rect x="167.52" y="656.12" width="6.98" height="6.98" fill="#d1d9f9"/><path d="M 167.52 663.1 A 6.98 6.98 0 0 1  174.5 656.12 L 174.5 663.1" fill="#1f45e2"/><rect x="174.5" y="656.12" width="6.98" height="6.98" fill="#3e5fe6"/><path d="M 174.5 656.12 A 6.98 6.98 0 0 1 181.48 663.1 L 174.5 663.1" fill="#adbbf4"/><rect x="167.52" y="663.1" width="6.98" height="6.98" fill="#5471e9"/><path d="M 167.52 663.1 A 6.98 6.98 0 0 0 174.5 670.08 L 174.5 663.1" fill="#b8c4f6"/><rect x="174.5" y="663.1" width="6.98" height="6.98" fill="#1f45e2"/><path d="M 174.5 670.08 A 6.98 6.98 0 0 0 181.48 663.1 L 174.5 663.1" fill="#bcc7f6"/><rect x="237.32" y="656.1199999999999" width="13.959999999999994" height="13.959999999999994" fill="#ffffff"/><rect x="237.32" y="656.12" width="6.98" height="6.98" fill="#778eed"/><polygon points="244.29999999999998,656.12 244.29999999999998,663.1 237.32,663.1" fill="#f7f8fe"/><rect x="244.3" y="656.12" width="6.98" height="6.98" fill="#7189ed"/><polygon points="244.3,656.12 251.28,663.1 244.3,663.1" fill="#c6d0f8"/><rect x="237.32" y="663.1" width="6.98" height="6.98" fill="#7088ec"/><polygon points="237.32,663.1 244.29999999999998,663.1 237.32,670.08" fill="#506de8"/><rect x="244.3" y="663.1" width="6.98" height="6.98" fill="#5f7aea"/><polygon points="244.3,663.1 251.28,663.1 251.28,670.08" fill="#5471e9"/><rect x="307.12" y="656.12" width="13.96" height="13.96" fill="#8b9ff0"/><rect x="307.12" y="656.12" width="13.96" height="13.96" fill="#6c85ec"/><rect x="376.92" y="656.1199999999999" width="13.959999999999994" height="13.959999999999994" fill="#ffffff"/><rect x="376.92" y="656.12" width="6.98" height="6.98" fill="#6881eb"/><path d="M 376.92 656.12 A 6.98 6.98 0 0 0 383.90000000000003 663.1 L 383.90000000000003 656.12" fill="#fafbfe"/><rect x="383.9" y="656.12" width="6.98" height="6.98" fill="#f0f3fd"/><path d="M 383.9 663.1 A 6.98 6.98 0 0 0 390.88 656.12 L 383.9 656.12" fill="#c0caf7"/><rect x="376.92" y="663.1" width="6.98" height="6.98" fill="#c6d0f8"/><path d="M 376.92 670.08 A 6.98 6.98 0 0 1  383.90000000000003 663.1 L 383.90000000000003 670.08" fill="#dee4fb"/><rect x="383.9" y="663.1" width="6.98" height="6.98" fill="#9eaef2"/><path d="M 383.9 663.1 A 6.98 6.98 0 0 1 390.88 670.08 L 383.9 670.08" fill="#264be3"/><rect x="446.72" y="656.12" width="13.96" height="13.96" fill="#647eeb"/><rect x="446.72" y="656.12" width="13.96" height="13.96" fill="#7a90ee"/><rect x="516.52" y="656.12" width="13.96" height="13.96" fill="#fafbfe"/><rect x="516.52" y="656.12" width="13.96" height="13.96" fill="#adbbf4"/><rect x="586.3199999999999" y="656.1199999999999" width="13.959999999999994" height="13.959999999999994" fill="#ffffff"/><rect x="586.32" y="656.12" width="6.98" height="6.98" fill="#4262e6"/><polygon points="593.3000000000001,656.12 593.3000000000001,663.1 586.32,663.1" fill="#5c77ea"/><rect x="593.3" y="656.12" width="6.98" height="6.98" fill="#c8d1f8"/><polygon points="593.3,656.12 600.28,663.1 593.3,663.1" fill="#8ca0f0"/><rect x="586.32" y="663.1" width="6.98" height="6.98" fill="#c3cdf7"/><polygon points="586.32,663.1 593.3000000000001,663.1 586.32,670.08" fill="#d7defa"/><rect x="593.3" y="663.1" width="6.98" height="6.98" fill="#e8ecfc"/><polygon points="593.3,663.1 600.28,663.1 600.28,670.08" fill="#d1d9f9"/><rect x="656.1199999999999" y="656.1199999999999" width="13.959999999999994" height="13.959999999999994" fill="#ffffff"/><rect x="656.12" y="656.12" width="6.98" height="6.98" fill="#7a90ee"/><path d="M 656.12 663.1 A 6.98 6.98 0 0 1 663.1 656.12 L 663.1 657.865 A 5.235 5.235 0 0 0 657.865 663.1" fill="#7289ed"/><rect x="663.1" y="656.12" width="6.98" height="6.98" fill="#7189ed"/><path d="M 663.1 656.12 A 6.98 6.98 0 0 1 670.08 663.1 L 668.335 663.1 A 5.235 5.235 0 0 0 663.1 657.865" fill="#92a4f1"/><rect x="656.12" y="663.1" width="6.98" height="6.98" fill="#6d86ec"/><path d="M 656.12 663.1 A 6.98 6.98 0 0 0 663.1 670.08 L 663.1 668.335 A 5.235 5.235 0 0 1 657.865 663.1" fill="#3f60e6"/><rect x="663.1" y="663.1" width="6.98" height="6.98" fill="#a3b2f3"/><path d="M 663.1 670.08 A 6.98 6.98 0 0 0 670.08 663.1 L 668.335 663.1 A 5.235 5.235 0 0 1 663.1 668.335" fill="#95a7f1"/><rect x="725.92" y="656.1199999999999" width="13.959999999999994" height="13.959999999999994" fill="#ffffff"/><rect x="725.92" y="656.12" width="6.98" height="6.98" fill="#758ced"/><path d="M 725.92 656.12 A 6.98 6.98 0 0 1 732.9 663.1 L 725.92 663.1" fill="#4766e7"/><rect x="732.9" y="656.12" width="6.98" height="6.98" fill="#6c85ec"/><path d="M 732.9 663.1 A 6.98 6.98 0 0 1  739.88 656.12 L 739.88 663.1" fill="#6f87ec"/><rect x="725.92" y="663.1" width="6.98" height="6.98" fill="#afbcf5"/><path d="M 725.92 670.08 A 6.98 6.98 0 0 0 732.9 663.1 L 725.92 663.1" fill="#274ce3"/><rect x="732.9" y="663.1" width="6.98" height="6.98" fill="#647eeb"/><path d="M 732.9 663.1 A 6.98 6.98 0 0 0 739.88 670.08 L 739.88 663.1" fill="#c2ccf7"/><rect x="795.7199999999999" y="656.1199999999999" width="13.959999999999994" height="13.959999999999994" fill="#ffffff"/><rect x="795.72" y="656.12" width="6.98" height="6.98" fill="#dbe1fa"/><path d="M 795.72 656.12 A 6.98 6.98 0 0 1 802.7 663.1 L 795.72 663.1" fill="#4766e7"/><rect x="802.7" y="656.12" width="6.98" height="6.98" fill="#5a76ea"/><path d="M 802.7 663.1 A 6.98 6.98 0 0 1  809.6800000000001 656.12 L 809.6800000000001 663.1" fill="#fbfcfe"/><rect x="795.72" y="663.1" width="6.98" height="6.98" fill="#3356e5"/><path d="M 795.72 670.08 A 6.98 6.98 0 0 0 802.7 663.1 L 795.72 663.1" fill="#cfd7f9"/><rect x="802.7" y="663.1" width="6.98" height="6.98" fill="#eaedfc"/><path d="M 802.7 663.1 A 6.98 6.98 0 0 0 809.6800000000001 670.08 L 809.6800000000001 663.1" fill="#eceffd"/><rect x="865.5199999999999" y="656.1199999999999" width="13.959999999999994" height="13.959999999999994" fill="#ffffff"/><rect x="865.52" y="656.12" width="6.98" height="6.98" fill="#eaedfc"/><path d="M 865.52 656.12 A 6.98 6.98 0 0 1 872.5 663.1 L 865.52 663.1" fill="#bec9f7"/><rect x="872.5" y="656.12" width="6.98" height="6.98" fill="#a7b6f4"/><path d="M 872.5 663.1 A 6.98 6.98 0 0 1  879.48 656.12 L 879.48 663.1" fill="#90a3f1"/><rect x="865.52" y="663.1" width="6.98" height="6.98" fill="#6b84ec"/><path d="M 865.52 670.08 A 6.98 6.98 0 0 0 872.5 663.1 L 865.52 663.1" fill="#fcfdff"/><rect x="872.5" y="663.1" width="6.98" height="6.98" fill="#edf0fd"/><path d="M 872.5 663.1 A 6.98 6.98 0 0 0 879.48 670.08 L 879.48 663.1" fill="#b8c4f6"/><rect x="935.3199999999999" y="656.1199999999999" width="13.959999999999994" height="13.959999999999994" fill="#ffffff"/><rect x="935.32" y="656.12" width="6.98" height="6.98" fill="#bfcaf7"/><path d="M 935.32 663.1 A 6.98 6.98 0 0 0 942.3000000000001 656.12 L 935.32 656.12" fill="#b1bef5"/><rect x="942.3" y="656.12" width="6.98" height="6.98" fill="#e0e5fb"/><path d="M 942.3 656.12 A 6.98 6.98 0 0 0 949.28 663.1 L 949.28 656.12" fill="#4565e7"/><rect x="935.32" y="663.1" width="6.98" height="6.98" fill="#1940e1"/><path d="M 935.32 663.1 A 6.98 6.98 0 0 1 942.3000000000001 670.08 L 935.32 670.08" fill="#2b4fe3"/><rect x="942.3" y="663.1" width="6.98" height="6.98" fill="#f1f3fd"/><path d="M 942.3 670.08 A 6.98 6.98 0 0 1  949.28 663.1 L 949.28 670.08" fill="#3759e5"/><rect x="1005.12" y="656.12" width="13.96" height="13.96" fill="#f9fafe"/><rect x="1005.12" y="656.12" width="13.96" height="13.96" fill="#3e5ee6"/><rect x="1074.92" y="656.12" width="13.96" height="13.96" fill="#284ce3"/><polygon points="1074.92,656.12 1088.88,656.12 1088.88,670.08" fill="#d7defa"/></g></svg>